<svg width="130" height="130" viewBox="0 0 130 130" fill="none" xmlns="http://www.w3.org/2000/svg">
<path d="M3.09524 6.19048C4.80469 6.19048 6.19048 4.80469 6.19048 3.09524C6.19048 1.38579 4.80469 0 3.09524 0C1.38579 0 0 1.38579 0 3.09524C0 4.80469 1.38579 6.19048 3.09524 6.19048Z" fill="#D9E0E9"/>
<path d="M27.8609 6.19048C29.5703 6.19048 30.9561 4.80469 30.9561 3.09524C30.9561 1.38579 29.5703 0 27.8609 0C26.1514 0 24.7656 1.38579 24.7656 3.09524C24.7656 4.80469 26.1514 6.19048 27.8609 6.19048Z" fill="#D9E0E9"/>
<path d="M52.6187 6.19048C54.3281 6.19048 55.7139 4.80469 55.7139 3.09524C55.7139 1.38579 54.3281 0 52.6187 0C50.9092 0 49.5234 1.38579 49.5234 3.09524C49.5234 4.80469 50.9092 6.19048 52.6187 6.19048Z" fill="#D9E0E9"/>
<path d="M77.3843 6.19048C79.0938 6.19048 80.4795 4.80469 80.4795 3.09524C80.4795 1.38579 79.0938 0 77.3843 0C75.6748 0 74.2891 1.38579 74.2891 3.09524C74.2891 4.80469 75.6748 6.19048 77.3843 6.19048Z" fill="#D9E0E9"/>
<path d="M102.142 6.19048C103.852 6.19048 105.237 4.80469 105.237 3.09524C105.237 1.38579 103.852 0 102.142 0C100.433 0 99.0469 1.38579 99.0469 3.09524C99.0469 4.80469 100.433 6.19048 102.142 6.19048Z" fill="#D9E0E9"/>
<path d="M126.908 6.19048C128.617 6.19048 130.003 4.80469 130.003 3.09524C130.003 1.38579 128.617 0 126.908 0C125.198 0 123.812 1.38579 123.812 3.09524C123.812 4.80469 125.198 6.19048 126.908 6.19048Z" fill="#D9E0E9"/>
<path d="M3.09524 30.9522C4.80469 30.9522 6.19048 29.5664 6.19048 27.857C6.19048 26.1475 4.80469 24.7617 3.09524 24.7617C1.38579 24.7617 0 26.1475 0 27.857C0 29.5664 1.38579 30.9522 3.09524 30.9522Z" fill="#D9E0E9"/>
<path d="M27.8609 30.9522C29.5703 30.9522 30.9561 29.5664 30.9561 27.857C30.9561 26.1475 29.5703 24.7617 27.8609 24.7617C26.1514 24.7617 24.7656 26.1475 24.7656 27.857C24.7656 29.5664 26.1514 30.9522 27.8609 30.9522Z" fill="#D9E0E9"/>
<path d="M52.6187 30.9522C54.3281 30.9522 55.7139 29.5664 55.7139 27.857C55.7139 26.1475 54.3281 24.7617 52.6187 24.7617C50.9092 24.7617 49.5234 26.1475 49.5234 27.857C49.5234 29.5664 50.9092 30.9522 52.6187 30.9522Z" fill="#D9E0E9"/>
<path d="M77.3843 30.9522C79.0938 30.9522 80.4795 29.5664 80.4795 27.857C80.4795 26.1475 79.0938 24.7617 77.3843 24.7617C75.6748 24.7617 74.2891 26.1475 74.2891 27.857C74.2891 29.5664 75.6748 30.9522 77.3843 30.9522Z" fill="#D9E0E9"/>
<path d="M102.142 30.9522C103.852 30.9522 105.237 29.5664 105.237 27.857C105.237 26.1475 103.852 24.7617 102.142 24.7617C100.433 24.7617 99.0469 26.1475 99.0469 27.857C99.0469 29.5664 100.433 30.9522 102.142 30.9522Z" fill="#D9E0E9"/>
<path d="M126.908 30.9522C128.617 30.9522 130.003 29.5664 130.003 27.857C130.003 26.1475 128.617 24.7617 126.908 24.7617C125.198 24.7617 123.812 26.1475 123.812 27.857C123.812 29.5664 125.198 30.9522 126.908 30.9522Z" fill="#D9E0E9"/>
<path d="M3.09524 55.7139C4.80469 55.7139 6.19048 54.3281 6.19048 52.6187C6.19048 50.9092 4.80469 49.5234 3.09524 49.5234C1.38579 49.5234 0 50.9092 0 52.6187C0 54.3281 1.38579 55.7139 3.09524 55.7139Z" fill="#D9E0E9"/>
<path d="M27.8609 55.7139C29.5703 55.7139 30.9561 54.3281 30.9561 52.6187C30.9561 50.9092 29.5703 49.5234 27.8609 49.5234C26.1514 49.5234 24.7656 50.9092 24.7656 52.6187C24.7656 54.3281 26.1514 55.7139 27.8609 55.7139Z" fill="#D9E0E9"/>
<path d="M52.6187 55.7139C54.3281 55.7139 55.7139 54.3281 55.7139 52.6187C55.7139 50.9092 54.3281 49.5234 52.6187 49.5234C50.9092 49.5234 49.5234 50.9092 49.5234 52.6187C49.5234 54.3281 50.9092 55.7139 52.6187 55.7139Z" fill="#D9E0E9"/>
<path d="M77.3843 55.7139C79.0938 55.7139 80.4795 54.3281 80.4795 52.6187C80.4795 50.9092 79.0938 49.5234 77.3843 49.5234C75.6748 49.5234 74.2891 50.9092 74.2891 52.6187C74.2891 54.3281 75.6748 55.7139 77.3843 55.7139Z" fill="#D9E0E9"/>
<path d="M102.142 55.7139C103.852 55.7139 105.237 54.3281 105.237 52.6187C105.237 50.9092 103.852 49.5234 102.142 49.5234C100.433 49.5234 99.0469 50.9092 99.0469 52.6187C99.0469 54.3281 100.433 55.7139 102.142 55.7139Z" fill="#D9E0E9"/>
<path d="M126.908 55.7139C128.617 55.7139 130.003 54.3281 130.003 52.6187C130.003 50.9092 128.617 49.5234 126.908 49.5234C125.198 49.5234 123.812 50.9092 123.812 52.6187C123.812 54.3281 125.198 55.7139 126.908 55.7139Z" fill="#D9E0E9"/>
<path d="M3.09524 80.4766C4.80469 80.4766 6.19048 79.0908 6.19048 77.3814C6.19048 75.6719 4.80469 74.2861 3.09524 74.2861C1.38579 74.2861 0 75.6719 0 77.3814C0 79.0908 1.38579 80.4766 3.09524 80.4766Z" fill="#D9E0E9"/>
<path d="M27.8609 80.4766C29.5703 80.4766 30.9561 79.0908 30.9561 77.3814C30.9561 75.6719 29.5703 74.2861 27.8609 74.2861C26.1514 74.2861 24.7656 75.6719 24.7656 77.3814C24.7656 79.0908 26.1514 80.4766 27.8609 80.4766Z" fill="#D9E0E9"/>
<path d="M52.6187 80.4766C54.3281 80.4766 55.7139 79.0908 55.7139 77.3814C55.7139 75.6719 54.3281 74.2861 52.6187 74.2861C50.9092 74.2861 49.5234 75.6719 49.5234 77.3814C49.5234 79.0908 50.9092 80.4766 52.6187 80.4766Z" fill="#D9E0E9"/>
<path d="M77.3843 80.4766C79.0938 80.4766 80.4795 79.0908 80.4795 77.3814C80.4795 75.6719 79.0938 74.2861 77.3843 74.2861C75.6748 74.2861 74.2891 75.6719 74.2891 77.3814C74.2891 79.0908 75.6748 80.4766 77.3843 80.4766Z" fill="#D9E0E9"/>
<path d="M102.142 80.4766C103.852 80.4766 105.237 79.0908 105.237 77.3814C105.237 75.6719 103.852 74.2861 102.142 74.2861C100.433 74.2861 99.0469 75.6719 99.0469 77.3814C99.0469 79.0908 100.433 80.4766 102.142 80.4766Z" fill="#D9E0E9"/>
<path d="M126.908 80.4766C128.617 80.4766 130.003 79.0908 130.003 77.3814C130.003 75.6719 128.617 74.2861 126.908 74.2861C125.198 74.2861 123.812 75.6719 123.812 77.3814C123.812 79.0908 125.198 80.4766 126.908 80.4766Z" fill="#D9E0E9"/>
<path d="M3.09524 105.238C4.80469 105.238 6.19048 103.853 6.19048 102.143C6.19048 100.434 4.80469 99.0479 3.09524 99.0479C1.38579 99.0479 0 100.434 0 102.143C0 103.853 1.38579 105.238 3.09524 105.238Z" fill="#D9E0E9"/>
<path d="M27.8609 105.238C29.5703 105.238 30.9561 103.853 30.9561 102.143C30.9561 100.434 29.5703 99.0479 27.8609 99.0479C26.1514 99.0479 24.7656 100.434 24.7656 102.143C24.7656 103.853 26.1514 105.238 27.8609 105.238Z" fill="#D9E0E9"/>
<path d="M52.6187 105.238C54.3281 105.238 55.7139 103.853 55.7139 102.143C55.7139 100.434 54.3281 99.0479 52.6187 99.0479C50.9092 99.0479 49.5234 100.434 49.5234 102.143C49.5234 103.853 50.9092 105.238 52.6187 105.238Z" fill="#D9E0E9"/>
<path d="M77.3843 105.238C79.0938 105.238 80.4795 103.853 80.4795 102.143C80.4795 100.434 79.0938 99.0479 77.3843 99.0479C75.6748 99.0479 74.2891 100.434 74.2891 102.143C74.2891 103.853 75.6748 105.238 77.3843 105.238Z" fill="#D9E0E9"/>
<path d="M102.142 105.238C103.852 105.238 105.237 103.853 105.237 102.143C105.237 100.434 103.852 99.0479 102.142 99.0479C100.433 99.0479 99.0469 100.434 99.0469 102.143C99.0469 103.853 100.433 105.238 102.142 105.238Z" fill="#D9E0E9"/>
<path d="M126.908 105.238C128.617 105.238 130.003 103.853 130.003 102.143C130.003 100.434 128.617 99.0479 126.908 99.0479C125.198 99.0479 123.812 100.434 123.812 102.143C123.812 103.853 125.198 105.238 126.908 105.238Z" fill="#D9E0E9"/>
<path d="M3.09524 130C4.80469 130 6.19048 128.614 6.19048 126.905C6.19048 125.195 4.80469 123.81 3.09524 123.81C1.38579 123.81 0 125.195 0 126.905C0 128.614 1.38579 130 3.09524 130Z" fill="#D9E0E9"/>
<path d="M27.8609 130C29.5703 130 30.9561 128.614 30.9561 126.905C30.9561 125.195 29.5703 123.81 27.8609 123.81C26.1514 123.81 24.7656 125.195 24.7656 126.905C24.7656 128.614 26.1514 130 27.8609 130Z" fill="#D9E0E9"/>
<path d="M52.6187 130C54.3281 130 55.7139 128.614 55.7139 126.905C55.7139 125.195 54.3281 123.81 52.6187 123.81C50.9092 123.81 49.5234 125.195 49.5234 126.905C49.5234 128.614 50.9092 130 52.6187 130Z" fill="#D9E0E9"/>
<path d="M77.3843 130C79.0938 130 80.4795 128.614 80.4795 126.905C80.4795 125.195 79.0938 123.81 77.3843 123.81C75.6748 123.81 74.2891 125.195 74.2891 126.905C74.2891 128.614 75.6748 130 77.3843 130Z" fill="#D9E0E9"/>
<path d="M102.142 130C103.852 130 105.237 128.614 105.237 126.905C105.237 125.195 103.852 123.81 102.142 123.81C100.433 123.81 99.0469 125.195 99.0469 126.905C99.0469 128.614 100.433 130 102.142 130Z" fill="#D9E0E9"/>
<path d="M126.908 130C128.617 130 130.003 128.614 130.003 126.905C130.003 125.195 128.617 123.81 126.908 123.81C125.198 123.81 123.812 125.195 123.812 126.905C123.812 128.614 125.198 130 126.908 130Z" fill="#D9E0E9"/>
</svg>
