<svg width="172" height="78" viewBox="0 0 172 78" fill="none" xmlns="http://www.w3.org/2000/svg">
<path opacity="0.7" d="M37.0979 5.8541C37.6966 4.01148 40.3034 4.01148 40.9021 5.8541L47.307 25.5664C47.5748 26.3904 48.3427 26.9483 49.2091 26.9483H69.9358C71.8733 26.9483 72.6788 29.4276 71.1114 30.5664L54.3432 42.7492C53.6422 43.2585 53.3489 44.1612 53.6166 44.9853L60.0215 64.6976C60.6202 66.5402 58.5113 68.0724 56.9438 66.9336L40.1756 54.7508C39.4746 54.2415 38.5254 54.2415 37.8244 54.7508L21.0562 66.9336C19.4887 68.0724 17.3798 66.5402 17.9785 64.6976L24.3834 44.9853C24.6511 44.1612 24.3578 43.2585 23.6568 42.7492L6.88859 30.5664C5.32117 29.4276 6.12672 26.9483 8.06416 26.9483H28.7909C29.6573 26.9483 30.4252 26.3904 30.693 25.5664L37.0979 5.8541Z" fill="#EADBC4"/>
<path opacity="0.7" d="M131.098 5.8541C131.697 4.01148 134.303 4.01148 134.902 5.8541L141.307 25.5664C141.575 26.3904 142.343 26.9483 143.209 26.9483H163.936C165.873 26.9483 166.679 29.4276 165.111 30.5664L148.343 42.7492C147.642 43.2585 147.349 44.1612 147.617 44.9853L154.022 64.6976C154.62 66.5402 152.511 68.0724 150.944 66.9336L134.176 54.7508C133.475 54.2415 132.525 54.2415 131.824 54.7508L115.056 66.9336C113.489 68.0724 111.38 66.5402 111.978 64.6976L118.383 44.9853C118.651 44.1612 118.358 43.2585 117.657 42.7492L100.889 30.5664C99.3212 29.4276 100.127 26.9483 102.064 26.9483H122.791C123.657 26.9483 124.425 26.3904 124.693 25.5664L131.098 5.8541Z" fill="#EADBC4"/>
</svg>
