<svg width="119" height="119" viewBox="0 0 119 119" fill="none" xmlns="http://www.w3.org/2000/svg">
<path opacity="0.5" d="M41.2003 36.7776C40.4875 37.4954 40.4875 38.6579 41.2003 39.3716C41.9131 40.0895 43.0673 40.0895 43.776 39.3716C44.4888 38.6538 44.4888 37.4914 43.776 36.7776C43.0632 36.0597 41.9131 36.0597 41.2003 36.7776ZM45.2097 18.607C47.6599 21.0746 47.6599 25.0799 45.2097 27.5475C42.7595 30.0151 38.7824 30.0151 36.3322 27.5475C33.882 25.0799 33.882 21.0746 36.3322 18.607C38.7824 16.1394 42.7554 16.1353 45.2097 18.607ZM-1.37183e-06 0C2.36923 3.9441 4.19982 7.93306 10.8661 9.76031C19.8043 12.2075 28.8317 7.92083 37.7537 8.44698C66.8203 10.1682 42.8972 39.3716 54.8891 53.333C64.5928 64.6351 80.5294 58.0602 87.3212 73.1514C91.521 82.4794 91.9139 92.5537 97.3732 101.608C102.371 109.896 109.15 117.621 119 119V108.51C118.858 108.518 118.712 108.522 118.575 108.522C115.391 108.534 112.565 106.711 110.244 104.68C106.542 101.441 103.351 97.5297 100.556 93.4837C99.1471 91.4443 97.8552 89.4295 97.1383 87.0312C96.8143 85.9463 95.5062 80.334 96.0691 78.7759C96.628 77.2342 98.2642 76.2471 99.868 76.6264C103.136 77.3973 102.675 81.7003 103.715 84.1353C105.384 88.0427 108.883 90.9753 112.795 92.4273C114.893 93.2063 117.04 93.7937 118.996 94.7562V0H20.1567C23.8624 1.21545 27.7422 2.07605 31.5938 2.36972C32.586 2.44314 32.6265 3.83397 31.8368 4.08277C30.8567 4.78839 29.747 4.8251 28.5887 5.1106C27.7787 5.31046 20.0473 6.82774 17.2812 6.98681C13.8549 7.18666 9.71181 6.65643 7.06718 4.27039C6.11139 3.40571 5.2447 2.35341 5.2933 0.987043C5.30545 0.65259 5.37027 0.322217 5.46342 0H-1.37183e-06ZM91.76 67.8205C92.5052 65.4549 94.9716 64.6188 97.0006 65.9729C97.8754 66.5561 98.6489 67.4698 98.7056 68.5547C98.7623 68.6526 98.811 68.7586 98.8434 68.8769C99.5683 71.2997 96.9925 72.9638 94.8541 72.7721C92.3877 72.5477 91.0269 70.1495 91.76 67.8205Z" fill="url(#paint0_linear_6560_101208)"/>
<defs>
<linearGradient id="paint0_linear_6560_101208" x1="117.86" y1="0.723927" x2="58.3639" y2="59.8012" gradientUnits="userSpaceOnUse">
<stop stop-color="white"/>
<stop offset="1" stop-color="white" stop-opacity="0.2"/>
</linearGradient>
</defs>
</svg>
