<svg width="130" height="130" viewBox="0 0 130 130" fill="none" xmlns="http://www.w3.org/2000/svg">
<path d="M3.09524 6.19048C4.80469 6.19048 6.19048 4.80469 6.19048 3.09524C6.19048 1.38579 4.80469 0 3.09524 0C1.38579 0 0 1.38579 0 3.09524C0 4.80469 1.38579 6.19048 3.09524 6.19048Z" fill="#D9E0E9"/>
<path d="M27.857 6.19048C29.5664 6.19048 30.9522 4.80469 30.9522 3.09524C30.9522 1.38579 29.5664 0 27.857 0C26.1475 0 24.7617 1.38579 24.7617 3.09524C24.7617 4.80469 26.1475 6.19048 27.857 6.19048Z" fill="#D9E0E9"/>
<path d="M52.6187 6.19048C54.3281 6.19048 55.7139 4.80469 55.7139 3.09524C55.7139 1.38579 54.3281 0 52.6187 0C50.9092 0 49.5234 1.38579 49.5234 3.09524C49.5234 4.80469 50.9092 6.19048 52.6187 6.19048Z" fill="#D9E0E9"/>
<path d="M77.3804 6.19048C79.0898 6.19048 80.4756 4.80469 80.4756 3.09524C80.4756 1.38579 79.0898 0 77.3804 0C75.6709 0 74.2852 1.38579 74.2852 3.09524C74.2852 4.80469 75.6709 6.19048 77.3804 6.19048Z" fill="#D9E0E9"/>
<path d="M102.142 6.19048C103.852 6.19048 105.237 4.80469 105.237 3.09524C105.237 1.38579 103.852 0 102.142 0C100.433 0 99.0469 1.38579 99.0469 3.09524C99.0469 4.80469 100.433 6.19048 102.142 6.19048Z" fill="#D9E0E9"/>
<path d="M126.904 6.19048C128.613 6.19048 129.999 4.80469 129.999 3.09524C129.999 1.38579 128.613 0 126.904 0C125.194 0 123.809 1.38579 123.809 3.09524C123.809 4.80469 125.194 6.19048 126.904 6.19048Z" fill="#D9E0E9"/>
<path d="M3.09524 30.9524C4.80469 30.9524 6.19048 29.5667 6.19048 27.8572C6.19048 26.1477 4.80469 24.762 3.09524 24.762C1.38579 24.762 0 26.1477 0 27.8572C0 29.5667 1.38579 30.9524 3.09524 30.9524Z" fill="#D9E0E9"/>
<path d="M27.857 30.9524C29.5664 30.9524 30.9522 29.5667 30.9522 27.8572C30.9522 26.1477 29.5664 24.762 27.857 24.762C26.1475 24.762 24.7617 26.1477 24.7617 27.8572C24.7617 29.5667 26.1475 30.9524 27.857 30.9524Z" fill="#D9E0E9"/>
<path d="M52.6187 30.9524C54.3281 30.9524 55.7139 29.5667 55.7139 27.8572C55.7139 26.1477 54.3281 24.762 52.6187 24.762C50.9092 24.762 49.5234 26.1477 49.5234 27.8572C49.5234 29.5667 50.9092 30.9524 52.6187 30.9524Z" fill="#D9E0E9"/>
<path d="M77.3804 30.9524C79.0898 30.9524 80.4756 29.5667 80.4756 27.8572C80.4756 26.1477 79.0898 24.762 77.3804 24.762C75.6709 24.762 74.2852 26.1477 74.2852 27.8572C74.2852 29.5667 75.6709 30.9524 77.3804 30.9524Z" fill="#D9E0E9"/>
<path d="M102.142 30.9524C103.852 30.9524 105.237 29.5667 105.237 27.8572C105.237 26.1477 103.852 24.762 102.142 24.762C100.433 24.762 99.0469 26.1477 99.0469 27.8572C99.0469 29.5667 100.433 30.9524 102.142 30.9524Z" fill="#D9E0E9"/>
<path d="M126.904 30.9524C128.613 30.9524 129.999 29.5667 129.999 27.8572C129.999 26.1477 128.613 24.762 126.904 24.762C125.194 24.762 123.809 26.1477 123.809 27.8572C123.809 29.5667 125.194 30.9524 126.904 30.9524Z" fill="#D9E0E9"/>
<path d="M3.09524 55.7144C4.80469 55.7144 6.19048 54.3286 6.19048 52.6192C6.19048 50.9097 4.80469 49.5239 3.09524 49.5239C1.38579 49.5239 0 50.9097 0 52.6192C0 54.3286 1.38579 55.7144 3.09524 55.7144Z" fill="#D9E0E9"/>
<path d="M27.857 55.7144C29.5664 55.7144 30.9522 54.3286 30.9522 52.6192C30.9522 50.9097 29.5664 49.5239 27.857 49.5239C26.1475 49.5239 24.7617 50.9097 24.7617 52.6192C24.7617 54.3286 26.1475 55.7144 27.857 55.7144Z" fill="#D9E0E9"/>
<path d="M52.6187 55.7144C54.3281 55.7144 55.7139 54.3286 55.7139 52.6192C55.7139 50.9097 54.3281 49.5239 52.6187 49.5239C50.9092 49.5239 49.5234 50.9097 49.5234 52.6192C49.5234 54.3286 50.9092 55.7144 52.6187 55.7144Z" fill="#D9E0E9"/>
<path d="M77.3804 55.7144C79.0898 55.7144 80.4756 54.3286 80.4756 52.6192C80.4756 50.9097 79.0898 49.5239 77.3804 49.5239C75.6709 49.5239 74.2852 50.9097 74.2852 52.6192C74.2852 54.3286 75.6709 55.7144 77.3804 55.7144Z" fill="#D9E0E9"/>
<path d="M102.142 55.7144C103.852 55.7144 105.237 54.3286 105.237 52.6192C105.237 50.9097 103.852 49.5239 102.142 49.5239C100.433 49.5239 99.0469 50.9097 99.0469 52.6192C99.0469 54.3286 100.433 55.7144 102.142 55.7144Z" fill="#D9E0E9"/>
<path d="M126.904 55.7144C128.613 55.7144 129.999 54.3286 129.999 52.6192C129.999 50.9097 128.613 49.5239 126.904 49.5239C125.194 49.5239 123.809 50.9097 123.809 52.6192C123.809 54.3286 125.194 55.7144 126.904 55.7144Z" fill="#D9E0E9"/>
<path d="M102.142 80.4761C103.852 80.4761 105.237 79.0903 105.237 77.3809C105.237 75.6714 103.852 74.2856 102.142 74.2856C100.433 74.2856 99.0469 75.6714 99.0469 77.3809C99.0469 79.0903 100.433 80.4761 102.142 80.4761Z" fill="#D9E0E9"/>
<path d="M126.904 80.4761C128.613 80.4761 129.999 79.0903 129.999 77.3809C129.999 75.6714 128.613 74.2856 126.904 74.2856C125.194 74.2856 123.809 75.6714 123.809 77.3809C123.809 79.0903 125.194 80.4761 126.904 80.4761Z" fill="#D9E0E9"/>
<path d="M102.142 105.238C103.852 105.238 105.237 103.852 105.237 102.143C105.237 100.433 103.852 99.0476 102.142 99.0476C100.433 99.0476 99.0469 100.433 99.0469 102.143C99.0469 103.852 100.433 105.238 102.142 105.238Z" fill="#D9E0E9"/>
<path d="M126.904 105.238C128.613 105.238 129.999 103.852 129.999 102.143C129.999 100.433 128.613 99.0476 126.904 99.0476C125.194 99.0476 123.809 100.433 123.809 102.143C123.809 103.852 125.194 105.238 126.904 105.238Z" fill="#D9E0E9"/>
<path d="M102.142 130C103.852 130 105.237 128.614 105.237 126.905C105.237 125.195 103.852 123.81 102.142 123.81C100.433 123.81 99.0469 125.195 99.0469 126.905C99.0469 128.614 100.433 130 102.142 130Z" fill="#D9E0E9"/>
<path d="M126.904 130C128.613 130 129.999 128.614 129.999 126.905C129.999 125.195 128.613 123.81 126.904 123.81C125.194 123.81 123.809 125.195 123.809 126.905C123.809 128.614 125.194 130 126.904 130Z" fill="#D9E0E9"/>
</svg>
