<svg width="40" height="40" viewBox="0 0 40 40" fill="none" xmlns="http://www.w3.org/2000/svg">
<path d="M31.6693 6.66699H8.33594C7.00986 6.66699 5.73809 7.19378 4.8004 8.13146C3.86272 9.06914 3.33594 10.3409 3.33594 11.667V28.3337C3.33594 29.6597 3.86272 30.9315 4.8004 31.8692C5.73809 32.8069 7.00986 33.3337 8.33594 33.3337H31.6693C32.9954 33.3337 34.2671 32.8069 35.2048 31.8692C36.1425 30.9315 36.6693 29.6597 36.6693 28.3337V11.667C36.6693 10.3409 36.1425 9.06914 35.2048 8.13146C34.2671 7.19378 32.9954 6.66699 31.6693 6.66699ZM30.5526 10.0003L20.0026 17.917L9.4526 10.0003H30.5526ZM31.6693 30.0003H8.33594C7.89391 30.0003 7.46999 29.8247 7.15743 29.5122C6.84487 29.1996 6.66927 28.7757 6.66927 28.3337V12.0837L19.0026 21.3337C19.2911 21.55 19.642 21.667 20.0026 21.667C20.3632 21.667 20.7141 21.55 21.0026 21.3337L33.3359 12.0837V28.3337C33.3359 28.7757 33.1603 29.1996 32.8478 29.5122C32.5352 29.8247 32.1113 30.0003 31.6693 30.0003Z" fill="url(#paint0_linear_6560_100711)"/>
<defs>
<linearGradient id="paint0_linear_6560_100711" x1="20.0026" y1="6.66699" x2="20.0026" y2="33.3337" gradientUnits="userSpaceOnUse">
<stop stop-color="#00A3A3"/>
<stop offset="0.0001" stop-color="#01B4B4"/>
<stop offset="1" stop-color="#007676"/>
</linearGradient>
</defs>
</svg>
