<svg width="443" height="192" viewBox="0 0 443 192" fill="none" xmlns="http://www.w3.org/2000/svg">
<path opacity="0.7" d="M37.5979 118.854C38.1966 117.011 40.8034 117.011 41.4021 118.854L47.9193 138.912C48.187 139.736 48.9549 140.294 49.8214 140.294L70.9114 140.294C72.8488 140.294 73.6544 142.773 72.0869 143.912L55.0248 156.308C54.3238 156.818 54.0305 157.72 54.2982 158.544L60.8154 178.602C61.4141 180.445 59.3051 181.977 57.7377 180.838L40.6756 168.442C39.9746 167.932 39.0254 167.932 38.3244 168.442L21.2623 180.838C19.6949 181.977 17.5859 180.445 18.1846 178.602L24.7018 158.544C24.9695 157.72 24.6762 156.818 23.9752 156.308L6.91307 143.912C5.34564 142.773 6.15119 140.294 8.08864 140.294L29.1786 140.294C30.0451 140.294 30.813 139.736 31.0807 138.912L37.5979 118.854Z" fill="#FCF2CC"/>
<path opacity="0.7" d="M136.098 84.8541C136.697 83.0115 139.303 83.0115 139.902 84.8541L146.307 104.566C146.575 105.39 147.343 105.948 148.209 105.948H168.936C170.873 105.948 171.679 108.428 170.111 109.566L153.343 121.749C152.642 122.259 152.349 123.161 152.617 123.985L159.022 143.698C159.62 145.54 157.511 147.072 155.944 145.934L139.176 133.751C138.475 133.241 137.525 133.241 136.824 133.751L120.056 145.934C118.489 147.072 116.38 145.54 116.978 143.698L123.383 123.985C123.651 123.161 123.358 122.259 122.657 121.749L105.889 109.566C104.321 108.428 105.127 105.948 107.064 105.948H127.791C128.657 105.948 129.425 105.39 129.693 104.566L136.098 84.8541Z" fill="#FCF2CC"/>
<path opacity="0.7" d="M269.099 5.81451C269.7 3.97651 272.3 3.97651 272.901 5.81451L288.735 54.2456C289.004 55.0679 289.771 55.6241 290.636 55.6241H341.849C343.79 55.6241 344.593 58.1097 343.02 59.2456L301.609 89.1468C300.904 89.6561 300.608 90.5629 300.879 91.3898L316.701 139.786C317.303 141.627 315.2 143.163 313.63 142.029L272.171 112.094C271.472 111.589 270.528 111.589 269.829 112.094L228.37 142.029C226.8 143.163 224.697 141.627 225.299 139.786L241.121 91.3898C241.392 90.5629 241.096 89.6561 240.391 89.1468L198.98 59.2456C197.407 58.1097 198.21 55.6241 200.151 55.6241H251.364C252.229 55.6241 252.996 55.0679 253.265 54.2456L269.099 5.81451Z" fill="#FCF2CC"/>
<path opacity="0.7" d="M402.098 84.8541C402.697 83.0115 405.303 83.0115 405.902 84.8541L412.307 104.566C412.575 105.39 413.343 105.948 414.209 105.948H434.936C436.873 105.948 437.679 108.428 436.111 109.566L419.343 121.749C418.642 122.259 418.349 123.161 418.617 123.985L425.022 143.698C425.62 145.54 423.511 147.072 421.944 145.934L405.176 133.751C404.475 133.241 403.525 133.241 402.824 133.751L386.056 145.934C384.489 147.072 382.38 145.54 382.978 143.698L389.383 123.985C389.651 123.161 389.358 122.259 388.657 121.749L371.889 109.566C370.321 108.428 371.127 105.948 373.064 105.948H393.791C394.657 105.948 395.425 105.39 395.693 104.566L402.098 84.8541Z" fill="#FCF2CC"/>
</svg>
