<svg width="452" height="452" viewBox="0 0 452 452" fill="none" xmlns="http://www.w3.org/2000/svg">
<path opacity="0.15" d="M295.508 139.693C298.216 142.42 298.216 146.835 295.508 149.546C292.801 152.273 288.417 152.273 285.725 149.546C283.017 146.819 283.017 142.404 285.725 139.693C288.432 136.966 292.801 136.966 295.508 139.693ZM280.279 70.6753C270.972 80.0481 270.972 95.2614 280.279 104.634C289.586 114.007 304.692 114.007 313.999 104.634C323.305 95.2614 323.305 80.0481 313.999 70.6753C304.692 61.3026 289.601 61.2871 280.279 70.6753ZM452 0C443.001 14.9809 436.048 30.1323 410.727 37.0728C376.777 46.3681 342.488 30.0858 308.599 32.0843C198.195 38.622 289.063 149.546 243.514 202.576C206.656 245.505 146.124 220.531 120.326 277.852C104.374 313.283 102.882 351.549 82.1454 385.941C63.1628 417.421 37.4116 446.764 0 452V412.154C0.538406 412.185 1.0922 412.201 1.61522 412.201C13.7063 412.247 24.4436 405.322 33.2581 397.607C47.3182 385.306 59.4401 370.449 70.0544 355.081C75.4077 347.335 80.3149 339.682 83.0377 330.572C84.2683 326.451 89.237 305.134 87.0988 299.216C84.9759 293.36 78.7612 289.611 72.6695 291.052C60.2554 293.98 62.009 310.324 58.0556 319.573C51.7178 334.414 38.4268 345.553 23.5668 351.068C15.5984 354.027 7.44538 356.258 0.0153746 359.914V0H375.439C361.363 4.61667 346.626 7.88552 331.997 9.00096C328.228 9.27982 328.074 14.5626 331.074 15.5077C334.797 18.1878 339.012 18.3273 343.411 19.4117C346.488 20.1708 375.854 25.9339 386.361 26.5381C399.375 27.2972 415.111 25.2832 425.157 16.2203C428.787 12.936 432.079 8.93899 431.894 3.74911C431.848 2.47875 431.602 1.22388 431.248 0H452ZM103.466 257.604C100.636 248.619 91.2676 245.443 83.5607 250.586C80.2379 252.801 77.2998 256.272 77.0844 260.393C76.8691 260.764 76.6845 261.167 76.5614 261.617C73.8078 270.819 83.5914 277.14 91.7137 276.412C101.082 275.56 106.251 266.45 103.466 257.604Z" fill="url(#paint0_linear_6684_86687)"/>
<defs>
<linearGradient id="paint0_linear_6684_86687" x1="4.32895" y1="2.7497" x2="230.315" y2="227.144" gradientUnits="userSpaceOnUse">
<stop stop-color="#F3CD41"/>
<stop offset="1" stop-color="#F0D97B"/>
</linearGradient>
</defs>
</svg>
