<svg width="98" height="101" viewBox="0 0 98 101" fill="none" xmlns="http://www.w3.org/2000/svg">
<path d="M72.8174 98.6924C78.4835 93.512 85.4036 90.0948 91.0082 84.9044C91.9587 84.0246 95.6445 81.9927 95.9698 80.5892M95.9698 80.5892C96.3911 78.7668 92.2857 76.4407 91.3419 75.8687C86.5833 72.9852 78.2426 68.0394 72.7602 65.5152M95.9698 80.5892C76.0835 84.575 46.2214 72.2381 44.1376 52.4904M44.1376 52.4904C43.5859 47.2621 44.9813 41.5144 49.0243 35.4127C56.669 23.8761 69.9504 36.2652 63.167 47.0641C59.4211 53.0258 50.9734 53.5623 44.1376 52.4904ZM44.1376 52.4904C42.1742 52.1825 40.3439 51.7419 38.796 51.259C19.6059 45.2726 3.99881 23.0609 2 2.00048" stroke="#30AF5E" stroke-width="3" stroke-miterlimit="1.5" stroke-linecap="round" stroke-linejoin="round"/>
</svg>
