<svg width="98" height="101" viewBox="0 0 98 101" fill="none" xmlns="http://www.w3.org/2000/svg">
<path d="M25.1826 98.6924C19.5165 93.512 12.5964 90.0948 6.99182 84.9044C6.04129 84.0246 2.35551 81.9927 2.03024 80.5892M2.03024 80.5892C1.60891 78.7668 5.71433 76.4407 6.65812 75.8687C11.4167 72.9852 19.7574 68.0394 25.2398 65.5152M2.03024 80.5892C21.9165 84.575 51.7786 72.2381 53.8624 52.4904M53.8624 52.4904C54.4141 47.2621 53.0187 41.5144 48.9757 35.4127C41.331 23.8761 28.0496 36.2652 34.833 47.0641C38.5789 53.0258 47.0266 53.5623 53.8624 52.4904ZM53.8624 52.4904C55.8258 52.1825 57.6561 51.7419 59.204 51.259C78.3941 45.2726 94.0012 23.0609 96 2.00048" stroke="#30AF5E" stroke-width="3" stroke-miterlimit="1.5" stroke-linecap="round" stroke-linejoin="round"/>
</svg>
