<svg width="40" height="40" viewBox="0 0 40 40" fill="none" xmlns="http://www.w3.org/2000/svg">
<path d="M19.9994 5.4541C16.0492 5.4541 15.5534 5.47137 14.002 5.54198C12.4535 5.61289 11.3966 5.85804 10.4718 6.21774C9.51512 6.58925 8.70363 7.08622 7.89517 7.89501C7.08611 8.7035 6.58915 9.51501 6.21643 10.4714C5.85584 11.3965 5.61039 12.4538 5.5407 14.0017C5.47131 15.5532 5.45312 16.0493 5.45312 19.9996C5.45312 23.9499 5.4707 24.4441 5.541 25.9956C5.61221 27.5441 5.85736 28.6011 6.21674 29.5259C6.58855 30.4826 7.0855 31.2941 7.89426 32.1026C8.70242 32.9117 9.51391 33.4099 10.4699 33.7814C11.3954 34.1411 12.4526 34.3862 14.0007 34.4571C15.5522 34.5277 16.0477 34.545 19.9975 34.545C23.948 34.545 24.4422 34.5277 25.9937 34.4571C27.5422 34.3862 28.6003 34.1411 29.5257 33.7814C30.4821 33.4099 31.2923 32.9117 32.1005 32.1026C32.9096 31.2941 33.4065 30.4826 33.7792 29.5262C34.1368 28.6011 34.3822 27.5438 34.455 25.9959C34.5247 24.4444 34.5429 23.9499 34.5429 19.9996C34.5429 16.0493 34.5247 15.5535 34.455 14.002C34.3822 12.4535 34.1368 11.3965 33.7792 10.4717C33.4065 9.51501 32.9096 8.7035 32.1005 7.89501C31.2914 7.08592 30.4824 6.58895 29.5248 6.21774C28.5976 5.85804 27.54 5.61289 25.9916 5.54198C24.4401 5.47137 23.9462 5.4541 19.9948 5.4541H19.9994ZM18.6945 8.07531C19.0818 8.07471 19.5139 8.07531 19.9994 8.07531C23.8829 8.07531 24.3432 8.08925 25.8767 8.15895C27.2949 8.2238 28.0646 8.46077 28.5773 8.65986C29.256 8.9235 29.74 9.23865 30.2487 9.74774C30.7578 10.2568 31.073 10.7417 31.3372 11.4205C31.5363 11.9326 31.7735 12.7023 31.8381 14.1205C31.9078 15.6538 31.9229 16.1144 31.9229 19.9962C31.9229 23.878 31.9078 24.3386 31.8381 25.872C31.7732 27.2902 31.5363 28.0599 31.3372 28.572C31.0736 29.2508 30.7578 29.7341 30.2487 30.2429C29.7397 30.752 29.2563 31.0671 28.5773 31.3308C28.0652 31.5308 27.2949 31.7671 25.8767 31.832C24.3435 31.9017 23.8829 31.9168 19.9994 31.9168C16.1155 31.9168 15.6552 31.9017 14.122 31.832C12.7038 31.7665 11.9341 31.5296 11.4211 31.3305C10.7424 31.0668 10.2575 30.7517 9.74845 30.2426C9.23937 29.7335 8.92423 29.2499 8.66 28.5708C8.46091 28.0586 8.22365 27.2889 8.1591 25.8708C8.08941 24.3374 8.07547 23.8768 8.07547 19.9926C8.07547 16.1083 8.08941 15.6502 8.1591 14.1168C8.22395 12.6986 8.46091 11.9289 8.66 11.4162C8.92363 10.7374 9.23937 10.2526 9.74845 9.74349C10.2575 9.2344 10.7424 8.91925 11.4211 8.65501C11.9338 8.45501 12.7038 8.21865 14.122 8.1535C15.4637 8.09289 15.9837 8.07471 18.6945 8.07168V8.07531ZM27.7634 10.4905C26.7998 10.4905 26.018 11.2714 26.018 12.2353C26.018 13.1989 26.7998 13.9808 27.7634 13.9808C28.727 13.9808 29.5088 13.1989 29.5088 12.2353C29.5088 11.2717 28.727 10.4899 27.7634 10.4899V10.4905ZM19.9994 12.5299C15.8743 12.5299 12.5299 15.8744 12.5299 19.9996C12.5299 24.1247 15.8743 27.4677 19.9994 27.4677C24.1244 27.4677 27.4676 24.1247 27.4676 19.9996C27.4676 15.8744 24.1241 12.5299 19.999 12.5299H19.9994ZM19.9994 15.1511C22.6768 15.1511 24.8477 17.3217 24.8477 19.9996C24.8477 22.6771 22.6768 24.848 19.9994 24.848C17.3216 24.848 15.151 22.6771 15.151 19.9996C15.151 17.3217 17.3216 15.1511 19.9994 15.1511Z" fill="url(#paint0_radial_6560_100682)"/>
<path d="M19.9993 5.4541C16.0492 5.4541 15.5534 5.47137 14.002 5.54198C12.4535 5.61289 11.3966 5.85804 10.4718 6.21774C9.51512 6.58925 8.70363 7.08622 7.89517 7.89501C7.08611 8.7035 6.58915 9.51501 6.21643 10.4714C5.85584 11.3965 5.61039 12.4538 5.5407 14.0017C5.47131 15.5532 5.45312 16.0493 5.45312 19.9996C5.45312 23.9499 5.4707 24.4441 5.541 25.9956C5.61221 27.5441 5.85736 28.6011 6.21674 29.5259C6.58855 30.4826 7.0855 31.2941 7.89426 32.1026C8.70242 32.9117 9.51391 33.4099 10.4699 33.7814C11.3954 34.1411 12.4526 34.3862 14.0007 34.4571C15.5522 34.5277 16.0477 34.545 19.9975 34.545C23.948 34.545 24.4422 34.5277 25.9937 34.4571C27.5422 34.3862 28.6003 34.1411 29.5257 33.7814C30.4821 33.4099 31.2923 32.9117 32.1005 32.1026C32.9096 31.2941 33.4065 30.4826 33.7792 29.5262C34.1368 28.6011 34.3822 27.5438 34.455 25.9959C34.5247 24.4444 34.5428 23.9499 34.5428 19.9996C34.5428 16.0493 34.5247 15.5535 34.455 14.002C34.3822 12.4535 34.1368 11.3965 33.7792 10.4717C33.4065 9.51501 32.9096 8.7035 32.1005 7.89501C31.2914 7.08592 30.4824 6.58895 29.5248 6.21774C28.5976 5.85804 27.54 5.61289 25.9916 5.54198C24.4401 5.47137 23.9462 5.4541 19.9948 5.4541H19.9993ZM18.6945 8.07531C19.0818 8.07471 19.5139 8.07531 19.9993 8.07531C23.8829 8.07531 24.3432 8.08925 25.8767 8.15895C27.2949 8.2238 28.0646 8.46077 28.5773 8.65986C29.256 8.9235 29.74 9.23865 30.2487 9.74774C30.7578 10.2568 31.073 10.7417 31.3372 11.4205C31.5363 11.9326 31.7735 12.7023 31.8381 14.1205C31.9078 15.6538 31.9229 16.1144 31.9229 19.9962C31.9229 23.878 31.9078 24.3386 31.8381 25.872C31.7732 27.2902 31.5363 28.0599 31.3372 28.572C31.0736 29.2508 30.7578 29.7341 30.2487 30.2429C29.7397 30.752 29.2563 31.0671 28.5773 31.3308C28.0652 31.5308 27.2949 31.7671 25.8767 31.832C24.3435 31.9017 23.8829 31.9168 19.9993 31.9168C16.1155 31.9168 15.6552 31.9017 14.122 31.832C12.7038 31.7665 11.9341 31.5296 11.4211 31.3305C10.7424 31.0668 10.2575 30.7517 9.74845 30.2426C9.23937 29.7335 8.92423 29.2499 8.66 28.5708C8.46091 28.0586 8.22365 27.2889 8.1591 25.8708C8.08941 24.3374 8.07547 23.8768 8.07547 19.9926C8.07547 16.1083 8.08941 15.6502 8.1591 14.1168C8.22395 12.6986 8.46091 11.9289 8.66 11.4162C8.92363 10.7374 9.23937 10.2526 9.74845 9.74349C10.2575 9.2344 10.7424 8.91925 11.4211 8.65501C11.9338 8.45501 12.7038 8.21865 14.122 8.1535C15.4637 8.09289 15.9837 8.07471 18.6945 8.07168V8.07531ZM27.7634 10.4905C26.7997 10.4905 26.018 11.2714 26.018 12.2353C26.018 13.1989 26.7997 13.9808 27.7634 13.9808C28.727 13.9808 29.5088 13.1989 29.5088 12.2353C29.5088 11.2717 28.727 10.4899 27.7634 10.4899V10.4905ZM19.9993 12.5299C15.8743 12.5299 12.5299 15.8744 12.5299 19.9996C12.5299 24.1247 15.8743 27.4677 19.9993 27.4677C24.1244 27.4677 27.4676 24.1247 27.4676 19.9996C27.4676 15.8744 24.1241 12.5299 19.999 12.5299H19.9993ZM19.9993 15.1511C22.6768 15.1511 24.8477 17.3217 24.8477 19.9996C24.8477 22.6771 22.6768 24.848 19.9993 24.848C17.3216 24.848 15.151 22.6771 15.151 19.9996C15.151 17.3217 17.3216 15.1511 19.9993 15.1511Z" fill="url(#paint1_radial_6560_100682)"/>
<defs>
<radialGradient id="paint0_radial_6560_100682" cx="0" cy="0" r="1" gradientUnits="userSpaceOnUse" gradientTransform="translate(13.1801 36.7856) rotate(-90) scale(28.8312 26.8142)">
<stop stop-color="#FFDD55"/>
<stop offset="0.1" stop-color="#FFDD55"/>
<stop offset="0.5" stop-color="#FF543E"/>
<stop offset="1" stop-color="#C837AB"/>
</radialGradient>
<radialGradient id="paint1_radial_6560_100682" cx="0" cy="0" r="1" gradientUnits="userSpaceOnUse" gradientTransform="translate(0.580443 7.54976) rotate(78.6811) scale(12.8877 53.1215)">
<stop stop-color="#3771C8"/>
<stop offset="0.128" stop-color="#3771C8"/>
<stop offset="1" stop-color="#6600FF" stop-opacity="0"/>
</radialGradient>
</defs>
</svg>
