<svg width="1228" height="132" viewBox="0 0 1228 132" fill="none" xmlns="http://www.w3.org/2000/svg">
<path d="M1227 42.8365V43.3365H1227.5V42.8365H1227ZM1 42.8365V42.3365H0.5V42.8365H1ZM1 131H0.5V131.5H1V131ZM979.581 130.5H977.576V131.5H979.581V130.5ZM973.565 130.5H969.555V131.5H973.565V130.5ZM965.544 130.5H961.533V131.5H965.544V130.5ZM957.523 130.5H953.512V131.5H957.523V130.5ZM949.502 130.5H945.491V131.5H949.502V130.5ZM941.481 130.5H937.47V131.5H941.481V130.5ZM933.459 130.5H929.449V131.5H933.459V130.5ZM925.438 130.5H921.428V131.5H925.438V130.5ZM917.417 130.5H913.406V131.5H917.417V130.5ZM909.396 130.5H905.385V131.5H909.396V130.5ZM901.375 130.5H897.364V131.5H901.375V130.5ZM893.354 130.5H889.343V131.5H893.354V130.5ZM885.332 130.5H881.322V131.5H885.332V130.5ZM877.311 130.5H873.301V131.5H877.311V130.5ZM869.29 130.5H865.28V131.5H869.29V130.5ZM861.269 130.5H857.258V131.5H861.269V130.5ZM853.248 130.5H849.237V131.5H853.248V130.5ZM845.227 130.5H841.216V131.5H845.227V130.5ZM837.206 130.5H833.195V131.5H837.206V130.5ZM829.184 130.5H825.174V131.5H829.184V130.5ZM821.163 130.5H817.153V131.5H821.163V130.5ZM813.142 130.5H809.132V131.5H813.142V130.5ZM805.121 130.5H801.11V131.5H805.121V130.5ZM797.1 130.5H793.089V131.5H797.1V130.5ZM789.079 130.5H785.068V131.5H789.079V130.5ZM781.058 130.5H777.047V131.5H781.058V130.5ZM773.036 130.5H769.026V131.5H773.036V130.5ZM765.015 130.5H761.005V131.5H765.015V130.5ZM756.994 130.5H752.984V131.5H756.994V130.5ZM748.973 130.5H744.962V131.5H748.973V130.5ZM740.952 130.5H736.941V131.5H740.952V130.5ZM732.931 130.5H728.92V131.5H732.931V130.5ZM724.909 130.5H720.899V131.5H724.909V130.5ZM716.888 130.5H712.878V131.5H716.888V130.5ZM708.867 130.5H704.857V131.5H708.867V130.5ZM700.846 130.5H696.835V131.5H700.846V130.5ZM692.825 130.5H688.814V131.5H692.825V130.5ZM684.804 130.5H680.793V131.5H684.804V130.5ZM676.782 130.5H672.772V131.5H676.782V130.5ZM668.761 130.5H664.751V131.5H668.761V130.5ZM660.74 130.5H656.729V131.5H660.74V130.5ZM652.719 130.5H648.708V131.5H652.719V130.5ZM644.698 130.5H640.687V131.5H644.698V130.5ZM636.677 130.5H632.666V131.5H636.677V130.5ZM628.655 130.5H624.645V131.5H628.655V130.5ZM620.634 130.5H616.624V131.5H620.634V130.5ZM612.613 130.5H608.602V131.5H612.613V130.5ZM604.592 130.5H600.581V131.5H604.592V130.5ZM596.571 130.5H592.56V131.5H596.571V130.5ZM588.549 130.5H584.539V131.5H588.549V130.5ZM580.528 130.5H576.518V131.5H580.528V130.5ZM572.507 130.5H568.497V131.5H572.507V130.5ZM564.486 130.5H560.475V131.5H564.486V130.5ZM556.465 130.5H552.454V131.5H556.465V130.5ZM548.444 130.5H544.433V131.5H548.444V130.5ZM540.422 130.5H536.412V131.5H540.422V130.5ZM532.401 130.5H528.391V131.5H532.401V130.5ZM524.38 130.5H520.369V131.5H524.38V130.5ZM516.359 130.5H512.348V131.5H516.359V130.5ZM508.338 130.5H504.327V131.5H508.338V130.5ZM500.316 130.5H496.306V131.5H500.316V130.5ZM492.295 130.5H488.285V131.5H492.295V130.5ZM484.274 130.5H480.264V131.5H484.274V130.5ZM476.253 130.5H472.242V131.5H476.253V130.5ZM468.232 130.5H464.221V131.5H468.232V130.5ZM460.211 130.5H456.2V131.5H460.211V130.5ZM452.19 130.5H448.179V131.5H452.19V130.5ZM444.168 130.5H440.158V131.5H444.168V130.5ZM436.147 130.5H432.137V131.5H436.147V130.5ZM428.126 130.5H424.116V131.5H428.126V130.5ZM420.105 130.5H416.094V131.5H420.105V130.5ZM412.084 130.5H408.073V131.5H412.084V130.5ZM404.063 130.5H400.052V131.5H404.063V130.5ZM396.042 130.5H392.031V131.5H396.042V130.5ZM388.021 130.5H384.01V131.5H388.021V130.5ZM379.999 130.5H375.989V131.5H379.999V130.5ZM371.978 130.5H367.968V131.5H371.978V130.5ZM363.957 130.5H359.947V131.5H363.957V130.5ZM355.936 130.5H351.926V131.5H355.936V130.5ZM347.915 130.5H343.904V131.5H347.915V130.5ZM339.894 130.5H335.883V131.5H339.894V130.5ZM331.873 130.5H327.862V131.5H331.873V130.5ZM323.852 130.5H319.841V131.5H323.852V130.5ZM315.831 130.5H311.82V131.5H315.831V130.5ZM307.809 130.5H303.799V131.5H307.809V130.5ZM299.788 130.5H295.778V131.5H299.788V130.5ZM291.767 130.5H287.757V131.5H291.767V130.5ZM283.746 130.5H279.735V131.5H283.746V130.5ZM275.725 130.5H271.714V131.5H275.725V130.5ZM267.704 130.5H263.693V131.5H267.704V130.5ZM259.683 130.5H255.672V131.5H259.683V130.5ZM251.662 130.5H247.651V131.5H251.662V130.5ZM243.64 130.5H239.63V131.5H243.64V130.5ZM235.619 130.5H231.609V131.5H235.619V130.5ZM227.598 130.5H223.588V131.5H227.598V130.5ZM219.577 130.5H215.567V131.5H219.577V130.5ZM211.556 130.5H207.545V131.5H211.556V130.5ZM203.535 130.5H199.524V131.5H203.535V130.5ZM195.514 130.5H191.503V131.5H195.514V130.5ZM187.493 130.5H183.482V131.5H187.493V130.5ZM179.471 130.5H175.461V131.5H179.471V130.5ZM171.45 130.5H167.44V131.5H171.45V130.5ZM163.429 130.5H159.419V131.5H163.429V130.5ZM155.408 130.5H151.398V131.5H155.408V130.5ZM147.387 130.5H143.376V131.5H147.387V130.5ZM139.366 130.5H135.355V131.5H139.366V130.5ZM131.345 130.5H127.334V131.5H131.345V130.5ZM123.324 130.5H119.313V131.5H123.324V130.5ZM115.303 130.5H111.292V131.5H115.303V130.5ZM107.281 130.5H103.271V131.5H107.281V130.5ZM99.2603 130.5H95.2497V131.5H99.2603V130.5ZM91.2392 130.5H87.2286V131.5H91.2392V130.5ZM83.2181 130.5H79.2075V131.5H83.2181V130.5ZM75.197 130.5H71.1864V131.5H75.197V130.5ZM67.1758 130.5H63.1653V131.5H67.1758V130.5ZM59.1547 130.5H55.1442V131.5H59.1547V130.5ZM51.1336 130.5H47.123V131.5H51.1336V130.5ZM43.1125 130.5H39.1019V131.5H43.1125V130.5ZM35.0914 130.5H31.0808V131.5H35.0914V130.5ZM27.0703 130.5H23.0597V131.5H27.0703V130.5ZM19.0491 130.5H15.0386V131.5H19.0491V130.5ZM11.028 130.5H7.01746V131.5H11.028V130.5ZM3.00689 130.5H1V131.5H3.00689V130.5ZM1.5 131V128.996H0.5V131H1.5ZM1.5 124.989V120.981H0.5V124.989H1.5ZM1.5 116.974V112.967H0.5V116.974H1.5ZM1.5 108.959V104.952H0.5V108.959H1.5ZM1.5 100.944V96.9368H0.5V100.944H1.5ZM1.5 92.9294V88.922H0.5V92.9294H1.5ZM1.5 84.9145V80.9071H0.5V84.9145H1.5ZM1.5 76.8997V72.8923H0.5V76.8997H1.5ZM1.5 68.8848V64.8774H0.5V68.8848H1.5ZM1.5 60.8699V56.8625H0.5V60.8699H1.5ZM1.5 52.8551V48.8477H0.5V52.8551H1.5ZM1.5 44.8402V42.8365H0.5V44.8402H1.5ZM1 43.3365H3.00327V42.3365H1V43.3365ZM7.0098 43.3365H11.0163V42.3365H7.0098V43.3365ZM15.0229 43.3365H19.0294V42.3365H15.0229V43.3365ZM23.0359 43.3365H27.0425V42.3365H23.0359V43.3365ZM31.049 43.3365H35.0556V42.3365H31.049V43.3365ZM39.0621 43.3365H43.0686V42.3365H39.0621V43.3365ZM47.0752 43.3365H51.0817V42.3365H47.0752V43.3365ZM55.0882 43.3365H59.0948V42.3365H55.0882V43.3365ZM63.1013 43.3365H67.1078V42.3365H63.1013V43.3365ZM71.1144 43.3365H75.1209V42.3365H71.1144V43.3365ZM79.1274 43.3365H83.134V42.3365H79.1274V43.3365ZM87.1405 43.3365H91.1471V42.3365H87.1405V43.3365ZM95.1536 43.3365H99.1601V42.3365H95.1536V43.3365ZM103.167 43.3365H107.173V42.3365H103.167V43.3365ZM111.18 43.3365H115.186V42.3365H111.18V43.3365ZM119.193 43.3365H123.199V42.3365H119.193V43.3365ZM127.206 43.3365H131.212V42.3365H127.206V43.3365ZM135.219 43.3365H139.226V42.3365H135.219V43.3365ZM143.232 43.3365H147.239V42.3365H143.232V43.3365ZM151.245 43.3365H155.252V42.3365H151.245V43.3365ZM159.258 43.3365H163.265V42.3365H159.258V43.3365ZM167.271 43.3365H171.278V42.3365H167.271V43.3365ZM175.284 43.3365H179.291V42.3365H175.284V43.3365ZM183.297 43.3365H187.304V42.3365H183.297V43.3365ZM191.31 43.3365H195.317V42.3365H191.31V43.3365ZM199.323 43.3365H203.33V42.3365H199.323V43.3365ZM207.337 43.3365H211.343V42.3365H207.337V43.3365ZM215.35 43.3365H219.356V42.3365H215.35V43.3365ZM223.363 43.3365H227.369V42.3365H223.363V43.3365ZM231.376 43.3365H235.382V42.3365H231.376V43.3365ZM239.389 43.3365H243.395V42.3365H239.389V43.3365ZM247.402 43.3365H251.408V42.3365H247.402V43.3365ZM255.415 43.3365H259.421V42.3365H255.415V43.3365ZM263.428 43.3365H267.435V42.3365H263.428V43.3365ZM271.441 43.3365H275.448V42.3365H271.441V43.3365ZM279.454 43.3365H283.461V42.3365H279.454V43.3365ZM287.467 43.3365H291.474V42.3365H287.467V43.3365ZM295.48 43.3365H299.487V42.3365H295.48V43.3365ZM303.493 43.3365H307.5V42.3365H303.493V43.3365ZM311.506 43.3365H315.513V42.3365H311.506V43.3365ZM319.519 43.3365H323.526V42.3365H319.519V43.3365ZM327.532 43.3365H331.539V42.3365H327.532V43.3365ZM335.546 43.3365H339.552V42.3365H335.546V43.3365ZM343.559 43.3365H347.565V42.3365H343.559V43.3365ZM351.572 43.3365H355.578V42.3365H351.572V43.3365ZM359.585 43.3365H363.591V42.3365H359.585V43.3365ZM367.598 43.3365H371.604V42.3365H367.598V43.3365ZM375.611 43.3365H379.617V42.3365H375.611V43.3365ZM383.624 43.3365H387.63V42.3365H383.624V43.3365ZM391.637 43.3365H395.644V42.3365H391.637V43.3365ZM399.65 43.3365H403.657V42.3365H399.65V43.3365ZM407.663 43.3365H411.67V42.3365H407.663V43.3365ZM415.676 43.3365H419.683V42.3365H415.676V43.3365ZM423.689 43.3365H427.696V42.3365H423.689V43.3365ZM431.702 43.3365H435.709V42.3365H431.702V43.3365ZM439.715 43.3365H443.722V42.3365H439.715V43.3365ZM447.728 43.3365H451.735V42.3365H447.728V43.3365ZM455.741 43.3365H459.748V42.3365H455.741V43.3365ZM463.755 43.3365H467.761V42.3365H463.755V43.3365ZM471.768 43.3365H475.774V42.3365H471.768V43.3365ZM479.781 43.3365H483.787V42.3365H479.781V43.3365ZM487.794 43.3365H491.8V42.3365H487.794V43.3365ZM495.807 43.3365H499.813V42.3365H495.807V43.3365ZM503.82 43.3365H507.826V42.3365H503.82V43.3365ZM511.833 43.3365H515.839V42.3365H511.833V43.3365ZM519.846 43.3365H523.853V42.3365H519.846V43.3365ZM527.859 43.3365H531.866V42.3365H527.859V43.3365ZM535.872 43.3365H539.879V42.3365H535.872V43.3365ZM543.885 43.3365H547.892V42.3365H543.885V43.3365ZM551.898 43.3365H555.905V42.3365H551.898V43.3365ZM559.911 43.3365H563.918V42.3365H559.911V43.3365ZM567.924 43.3365H571.931V42.3365H567.924V43.3365ZM575.937 43.3365H579.944V42.3365H575.937V43.3365ZM583.951 43.3365H587.957V42.3365H583.951V43.3365ZM591.964 43.3365H595.97V42.3365H591.964V43.3365ZM599.977 43.3365H603.983V42.3365H599.977V43.3365ZM607.99 43.3365H611.996V42.3365H607.99V43.3365ZM616.003 43.3365H620.009V42.3365H616.003V43.3365ZM624.016 43.3365H628.022V42.3365H624.016V43.3365ZM632.029 43.3365H636.035V42.3365H632.029V43.3365ZM640.042 43.3365H644.048V42.3365H640.042V43.3365ZM648.055 43.3365H652.062V42.3365H648.055V43.3365ZM656.068 43.3365H660.075V42.3365H656.068V43.3365ZM664.081 43.3365H668.088V42.3365H664.081V43.3365ZM672.094 43.3365H676.101V42.3365H672.094V43.3365ZM680.107 43.3365H684.114V42.3365H680.107V43.3365ZM688.12 43.3365H692.127V42.3365H688.12V43.3365ZM696.133 43.3365H700.14V42.3365H696.133V43.3365ZM704.146 43.3365H708.153V42.3365H704.146V43.3365ZM712.159 43.3365H716.166V42.3365H712.159V43.3365ZM720.173 43.3365H724.179V42.3365H720.173V43.3365ZM728.186 43.3365H732.192V42.3365H728.186V43.3365ZM736.199 43.3365H740.205V42.3365H736.199V43.3365ZM744.212 43.3365H748.218V42.3365H744.212V43.3365ZM752.225 43.3365H756.231V42.3365H752.225V43.3365ZM760.238 43.3365H764.244V42.3365H760.238V43.3365ZM768.251 43.3365H772.257V42.3365H768.251V43.3365ZM776.264 43.3365H780.271V42.3365H776.264V43.3365ZM784.277 43.3365H788.284V42.3365H784.277V43.3365ZM792.29 43.3365H796.297V42.3365H792.29V43.3365ZM800.303 43.3365H804.31V42.3365H800.303V43.3365ZM808.316 43.3365H812.323V42.3365H808.316V43.3365ZM816.329 43.3365H820.336V42.3365H816.329V43.3365ZM824.342 43.3365H828.349V42.3365H824.342V43.3365ZM832.355 43.3365H836.362V42.3365H832.355V43.3365ZM840.368 43.3365H844.375V42.3365H840.368V43.3365ZM848.382 43.3365H852.388V42.3365H848.382V43.3365ZM856.395 43.3365H860.401V42.3365H856.395V43.3365ZM864.408 43.3365H868.414V42.3365H864.408V43.3365ZM872.421 43.3365H876.427V42.3365H872.421V43.3365ZM880.434 43.3365H884.44V42.3365H880.434V43.3365ZM888.447 43.3365H892.453V42.3365H888.447V43.3365ZM896.46 43.3365H900.466V42.3365H896.46V43.3365ZM904.473 43.3365H908.479V42.3365H904.473V43.3365ZM912.486 43.3365H916.492V42.3365H912.486V43.3365ZM920.499 43.3365H924.506V42.3365H920.499V43.3365ZM928.512 43.3365H932.519V42.3365H928.512V43.3365ZM936.525 43.3365H940.532V42.3365H936.525V43.3365ZM944.538 43.3365H948.545V42.3365H944.538V43.3365ZM952.551 43.3365H956.558V42.3365H952.551V43.3365ZM960.564 43.3365H964.571V42.3365H960.564V43.3365ZM968.577 43.3365H972.584V42.3365H968.577V43.3365ZM976.591 43.3365H980.597V42.3365H976.591V43.3365ZM984.604 43.3365H988.61V42.3365H984.604V43.3365ZM992.617 43.3365H996.623V42.3365H992.617V43.3365ZM1000.63 43.3365H1004.64V42.3365H1000.63V43.3365ZM1008.64 43.3365H1012.65V42.3365H1008.64V43.3365ZM1016.66 43.3365H1020.66V42.3365H1016.66V43.3365ZM1024.67 43.3365H1028.68V42.3365H1024.67V43.3365ZM1032.68 43.3365H1036.69V42.3365H1032.68V43.3365ZM1040.7 43.3365H1044.7V42.3365H1040.7V43.3365ZM1048.71 43.3365H1052.72V42.3365H1048.71V43.3365ZM1056.72 43.3365H1060.73V42.3365H1056.72V43.3365ZM1064.73 43.3365H1068.74V42.3365H1064.73V43.3365ZM1072.75 43.3365H1076.75V42.3365H1072.75V43.3365ZM1080.76 43.3365H1084.77V42.3365H1080.76V43.3365ZM1088.77 43.3365H1092.78V42.3365H1088.77V43.3365ZM1096.79 43.3365H1100.79V42.3365H1096.79V43.3365ZM1104.8 43.3365H1108.81V42.3365H1104.8V43.3365ZM1112.81 43.3365H1116.82V42.3365H1112.81V43.3365ZM1120.83 43.3365H1124.83V42.3365H1120.83V43.3365ZM1128.84 43.3365H1132.85V42.3365H1128.84V43.3365ZM1136.85 43.3365H1140.86V42.3365H1136.85V43.3365ZM1144.87 43.3365H1148.87V42.3365H1144.87V43.3365ZM1152.88 43.3365H1156.89V42.3365H1152.88V43.3365ZM1160.89 43.3365H1164.9V42.3365H1160.89V43.3365ZM1168.91 43.3365H1172.91V42.3365H1168.91V43.3365ZM1176.92 43.3365H1180.93V42.3365H1176.92V43.3365ZM1184.93 43.3365H1188.94V42.3365H1184.93V43.3365ZM1192.95 43.3365H1196.95V42.3365H1192.95V43.3365ZM1200.96 43.3365H1204.97V42.3365H1200.96V43.3365ZM1208.97 43.3365H1212.98V42.3365H1208.97V43.3365ZM1216.99 43.3365H1220.99V42.3365H1216.99V43.3365ZM1225 43.3365H1227V42.3365H1225V43.3365ZM1227.5 42.8365V40.6947H1226.5V42.8365H1227.5ZM1227.5 36.411V32.1274H1226.5V36.411H1227.5ZM1227.5 27.8437V23.5601H1226.5V27.8437H1227.5ZM1227.5 19.2764V14.9928H1226.5V19.2764H1227.5ZM1227.5 10.7091V6.42548H1226.5V10.7091H1227.5ZM1227.5 2.14183V0H1226.5V2.14183H1227.5Z" fill="#2FAC5D"/>
</svg>
