<svg width="1346" height="227" viewBox="0 0 1346 227" fill="none" xmlns="http://www.w3.org/2000/svg">
<path d="M1227 47.5V48H1227.5V47.5H1227ZM1 47.5V47H0.5V47.5H1ZM1 137H0.5V137.5H1V137ZM1345 137H1345.5V136.5H1345V137ZM1345 226V226.5H1345.5V226H1345ZM737.71 226.5H739.707V225.5H737.71V226.5ZM743.703 226.5H747.698V225.5H743.703V226.5ZM751.693 226.5H755.689V225.5H751.693V226.5ZM759.684 226.5H763.679V225.5H759.684V226.5ZM767.674 226.5H771.67V225.5H767.674V226.5ZM775.665 226.5H779.661V225.5H775.665V226.5ZM783.656 226.5H787.651V225.5H783.656V226.5ZM791.646 226.5H795.642V225.5H791.646V226.5ZM799.637 226.5H803.633V225.5H799.637V226.5ZM807.628 226.5H811.623V225.5H807.628V226.5ZM815.619 226.5H819.614V225.5H815.619V226.5ZM823.609 226.5H827.604V225.5H823.609V226.5ZM831.6 226.5H835.595V225.5H831.6V226.5ZM839.59 226.5H843.586V225.5H839.59V226.5ZM847.581 226.5H851.576V225.5H847.581V226.5ZM855.572 226.5H859.567V225.5H855.572V226.5ZM863.562 226.5H867.558V225.5H863.562V226.5ZM871.553 226.5H875.548V225.5H871.553V226.5ZM879.544 226.5H883.539V225.5H879.544V226.5ZM887.534 226.5H891.53V225.5H887.534V226.5ZM895.525 226.5H899.52V225.5H895.525V226.5ZM903.516 226.5H907.511V225.5H903.516V226.5ZM911.506 226.5H915.502V225.5H911.506V226.5ZM919.497 226.5H923.492V225.5H919.497V226.5ZM927.488 226.5H931.483V225.5H927.488V226.5ZM935.478 226.5H939.474V225.5H935.478V226.5ZM943.469 226.5H947.464V225.5H943.469V226.5ZM951.46 226.5H955.455V225.5H951.46V226.5ZM959.45 226.5H963.446V225.5H959.45V226.5ZM967.441 226.5H971.436V225.5H967.441V226.5ZM975.432 226.5H979.427V225.5H975.432V226.5ZM983.422 226.5H987.418V225.5H983.422V226.5ZM991.413 226.5H995.408V225.5H991.413V226.5ZM999.404 226.5H1003.4V225.5H999.404V226.5ZM1007.39 226.5H1011.39V225.5H1007.39V226.5ZM1015.39 226.5H1019.38V225.5H1015.39V226.5ZM1023.38 226.5H1027.37V225.5H1023.38V226.5ZM1031.37 226.5H1035.36V225.5H1031.37V226.5ZM1039.36 226.5H1043.35V225.5H1039.36V226.5ZM1047.35 226.5H1051.34V225.5H1047.35V226.5ZM1055.34 226.5H1059.33V225.5H1055.34V226.5ZM1063.33 226.5H1067.32V225.5H1063.33V226.5ZM1071.32 226.5H1075.31V225.5H1071.32V226.5ZM1079.31 226.5H1083.31V225.5H1079.31V226.5ZM1087.3 226.5H1091.3V225.5H1087.3V226.5ZM1095.29 226.5H1099.29V225.5H1095.29V226.5ZM1103.28 226.5H1107.28V225.5H1103.28V226.5ZM1111.27 226.5H1115.27V225.5H1111.27V226.5ZM1119.26 226.5H1123.26V225.5H1119.26V226.5ZM1127.25 226.5H1131.25V225.5H1127.25V226.5ZM1135.24 226.5H1139.24V225.5H1135.24V226.5ZM1143.24 226.5H1147.23V225.5H1143.24V226.5ZM1151.23 226.5H1155.22V225.5H1151.23V226.5ZM1159.22 226.5H1163.21V225.5H1159.22V226.5ZM1167.21 226.5H1171.2V225.5H1167.21V226.5ZM1175.2 226.5H1179.19V225.5H1175.2V226.5ZM1183.19 226.5H1187.18V225.5H1183.19V226.5ZM1191.18 226.5H1195.17V225.5H1191.18V226.5ZM1199.17 226.5H1203.17V225.5H1199.17V226.5ZM1207.16 226.5H1211.16V225.5H1207.16V226.5ZM1215.15 226.5H1219.15V225.5H1215.15V226.5ZM1223.14 226.5H1227.14V225.5H1223.14V226.5ZM1231.13 226.5H1235.13V225.5H1231.13V226.5ZM1239.12 226.5H1243.12V225.5H1239.12V226.5ZM1247.11 226.5H1251.11V225.5H1247.11V226.5ZM1255.1 226.5H1259.1V225.5H1255.1V226.5ZM1263.1 226.5H1267.09V225.5H1263.1V226.5ZM1271.09 226.5H1275.08V225.5H1271.09V226.5ZM1279.08 226.5H1283.07V225.5H1279.08V226.5ZM1287.07 226.5H1291.06V225.5H1287.07V226.5ZM1295.06 226.5H1299.05V225.5H1295.06V226.5ZM1303.05 226.5H1307.04V225.5H1303.05V226.5ZM1311.04 226.5H1315.04V225.5H1311.04V226.5ZM1319.03 226.5H1323.03V225.5H1319.03V226.5ZM1327.02 226.5H1331.02V225.5H1327.02V226.5ZM1335.01 226.5H1339.01V225.5H1335.01V226.5ZM1343 226.5H1345V225.5H1343V226.5ZM1345.5 226V223.977H1344.5V226H1345.5ZM1345.5 219.932V215.886H1344.5V219.932H1345.5ZM1345.5 211.841V207.795H1344.5V211.841H1345.5ZM1345.5 203.75V199.705H1344.5V203.75H1345.5ZM1345.5 195.659V191.614H1344.5V195.659H1345.5ZM1345.5 187.568V183.523H1344.5V187.568H1345.5ZM1345.5 179.477V175.432H1344.5V179.477H1345.5ZM1345.5 171.386V167.341H1344.5V171.386H1345.5ZM1345.5 163.295V159.25H1344.5V163.295H1345.5ZM1345.5 155.205V151.159H1344.5V155.205H1345.5ZM1345.5 147.114V143.068H1344.5V147.114H1345.5ZM1345.5 139.023V137H1344.5V139.023H1345.5ZM1345 136.5H1343V137.5H1345V136.5ZM1339 136.5H1335V137.5H1339V136.5ZM1331 136.5H1327V137.5H1331V136.5ZM1323 136.5H1319V137.5H1323V136.5ZM1315 136.5H1311V137.5H1315V136.5ZM1307 136.5H1303V137.5H1307V136.5ZM1299 136.5H1295V137.5H1299V136.5ZM1291 136.5H1287V137.5H1291V136.5ZM1283 136.5H1279V137.5H1283V136.5ZM1275 136.5H1271V137.5H1275V136.5ZM1267 136.5H1263V137.5H1267V136.5ZM1259 136.5H1255V137.5H1259V136.5ZM1251 136.5H1247V137.5H1251V136.5ZM1243 136.5H1239V137.5H1243V136.5ZM1235 136.5H1231V137.5H1235V136.5ZM1227 136.5H1223V137.5H1227V136.5ZM1219 136.5H1215V137.5H1219V136.5ZM1211 136.5H1207V137.5H1211V136.5ZM1203 136.5H1199V137.5H1203V136.5ZM1195 136.5H1191V137.5H1195V136.5ZM1187 136.5H1183V137.5H1187V136.5ZM1179 136.5H1175V137.5H1179V136.5ZM1171 136.5H1167V137.5H1171V136.5ZM1163 136.5H1159V137.5H1163V136.5ZM1155 136.5H1151V137.5H1155V136.5ZM1147 136.5H1143V137.5H1147V136.5ZM1139 136.5H1135V137.5H1139V136.5ZM1131 136.5H1127V137.5H1131V136.5ZM1123 136.5H1119V137.5H1123V136.5ZM1115 136.5H1111V137.5H1115V136.5ZM1107 136.5H1103V137.5H1107V136.5ZM1099 136.5H1095V137.5H1099V136.5ZM1091 136.5H1087V137.5H1091V136.5ZM1083 136.5H1079V137.5H1083V136.5ZM1075 136.5H1071V137.5H1075V136.5ZM1067 136.5H1063V137.5H1067V136.5ZM1059 136.5H1055V137.5H1059V136.5ZM1051 136.5H1047V137.5H1051V136.5ZM1043 136.5H1039V137.5H1043V136.5ZM1035 136.5H1031V137.5H1035V136.5ZM1027 136.5H1023V137.5H1027V136.5ZM1019 136.5H1015V137.5H1019V136.5ZM1011 136.5H1007V137.5H1011V136.5ZM1003 136.5H999V137.5H1003V136.5ZM995 136.5H991V137.5H995V136.5ZM987 136.5H983V137.5H987V136.5ZM979 136.5H975V137.5H979V136.5ZM971 136.5H967V137.5H971V136.5ZM963 136.5H959V137.5H963V136.5ZM955 136.5H951V137.5H955V136.5ZM947 136.5H943V137.5H947V136.5ZM939 136.5H935V137.5H939V136.5ZM931 136.5H927V137.5H931V136.5ZM923 136.5H919V137.5H923V136.5ZM915 136.5H911V137.5H915V136.5ZM907 136.5H903V137.5H907V136.5ZM899 136.5H895V137.5H899V136.5ZM891 136.5H887V137.5H891V136.5ZM883 136.5H879V137.5H883V136.5ZM875 136.5H871V137.5H875V136.5ZM867 136.5H863V137.5H867V136.5ZM859 136.5H855V137.5H859V136.5ZM851 136.5H847V137.5H851V136.5ZM843 136.5H839V137.5H843V136.5ZM835 136.5H831V137.5H835V136.5ZM827 136.5H823V137.5H827V136.5ZM819 136.5H815V137.5H819V136.5ZM811 136.5H807V137.5H811V136.5ZM803 136.5H799V137.5H803V136.5ZM795 136.5H791V137.5H795V136.5ZM787 136.5H783V137.5H787V136.5ZM779 136.5H775V137.5H779V136.5ZM771 136.5H767V137.5H771V136.5ZM763 136.5H759V137.5H763V136.5ZM755 136.5H751V137.5H755V136.5ZM747 136.5H743V137.5H747V136.5ZM739 136.5H735V137.5H739V136.5ZM731 136.5H727V137.5H731V136.5ZM723 136.5H719V137.5H723V136.5ZM715 136.5H711V137.5H715V136.5ZM707 136.5H703V137.5H707V136.5ZM699 136.5H695V137.5H699V136.5ZM691 136.5H687V137.5H691V136.5ZM683 136.5H679V137.5H683V136.5ZM675 136.5H671V137.5H675V136.5ZM667 136.5H663V137.5H667V136.5ZM659 136.5H655V137.5H659V136.5ZM651 136.5H647V137.5H651V136.5ZM643 136.5H639V137.5H643V136.5ZM635 136.5H631V137.5H635V136.5ZM627 136.5H623V137.5H627V136.5ZM619 136.5H615V137.5H619V136.5ZM611 136.5H607V137.5H611V136.5ZM603 136.5H599V137.5H603V136.5ZM595 136.5H591V137.5H595V136.5ZM587 136.5H583V137.5H587V136.5ZM579 136.5H575V137.5H579V136.5ZM571 136.5H567V137.5H571V136.5ZM563 136.5H559V137.5H563V136.5ZM555 136.5H551V137.5H555V136.5ZM547 136.5H543V137.5H547V136.5ZM539 136.5H535V137.5H539V136.5ZM531 136.5H527V137.5H531V136.5ZM523 136.5H519V137.5H523V136.5ZM515 136.5H511V137.5H515V136.5ZM507 136.5H503V137.5H507V136.5ZM499 136.5H495V137.5H499V136.5ZM491 136.5H487V137.5H491V136.5ZM483 136.5H479V137.5H483V136.5ZM475 136.5H471V137.5H475V136.5ZM467 136.5H463V137.5H467V136.5ZM459 136.5H455V137.5H459V136.5ZM451 136.5H447V137.5H451V136.5ZM443 136.5H439V137.5H443V136.5ZM435 136.5H431V137.5H435V136.5ZM427 136.5H423V137.5H427V136.5ZM419 136.5H415V137.5H419V136.5ZM411 136.5H407V137.5H411V136.5ZM403 136.5H399V137.5H403V136.5ZM395 136.5H391V137.5H395V136.5ZM387 136.5H383V137.5H387V136.5ZM379 136.5H375V137.5H379V136.5ZM371 136.5H367V137.5H371V136.5ZM363 136.5H359V137.5H363V136.5ZM355 136.5H351V137.5H355V136.5ZM347 136.5H343V137.5H347V136.5ZM339 136.5H335V137.5H339V136.5ZM331 136.5H327V137.5H331V136.5ZM323 136.5H319V137.5H323V136.5ZM315 136.5H311V137.5H315V136.5ZM307 136.5H303V137.5H307V136.5ZM299 136.5H295V137.5H299V136.5ZM291 136.5H287V137.5H291V136.5ZM283 136.5H279V137.5H283V136.5ZM275 136.5H271V137.5H275V136.5ZM267 136.5H263V137.5H267V136.5ZM259 136.5H255V137.5H259V136.5ZM251 136.5H247V137.5H251V136.5ZM243 136.5H239V137.5H243V136.5ZM235 136.5H231V137.5H235V136.5ZM227 136.5H223V137.5H227V136.5ZM219 136.5H215V137.5H219V136.5ZM211 136.5H207V137.5H211V136.5ZM203 136.5H199V137.5H203V136.5ZM195 136.5H191V137.5H195V136.5ZM187 136.5H183V137.5H187V136.5ZM179 136.5H175V137.5H179V136.5ZM171 136.5H167V137.5H171V136.5ZM163 136.5H159V137.5H163V136.5ZM155 136.5H151V137.5H155V136.5ZM147 136.5H143V137.5H147V136.5ZM139 136.5H135V137.5H139V136.5ZM131 136.5H127V137.5H131V136.5ZM123 136.5H119V137.5H123V136.5ZM115 136.5H111V137.5H115V136.5ZM107 136.5H103V137.5H107V136.5ZM99 136.5H95V137.5H99V136.5ZM91 136.5H87V137.5H91V136.5ZM83 136.5H79V137.5H83V136.5ZM75 136.5H71V137.5H75V136.5ZM67 136.5H63V137.5H67V136.5ZM59 136.5H55V137.5H59V136.5ZM51 136.5H47V137.5H51V136.5ZM43 136.5H39V137.5H43V136.5ZM35 136.5H31V137.5H35V136.5ZM27 136.5H23V137.5H27V136.5ZM19 136.5H15V137.5H19V136.5ZM11 136.5H6.99998V137.5H11V136.5ZM2.99999 136.5H1V137.5H2.99999V136.5ZM1.5 137V134.966H0.5V137H1.5ZM1.5 130.898V126.83H0.5V130.898H1.5ZM1.5 122.761V118.693H0.5V122.761H1.5ZM1.5 114.625V110.557H0.5V114.625H1.5ZM1.5 106.489V102.42H0.5V106.489H1.5ZM1.5 98.3523V94.2841H0.5V98.3523H1.5ZM1.5 90.2159V86.1477H0.5V90.2159H1.5ZM1.5 82.0795V78.0114H0.5V82.0795H1.5ZM1.5 73.9432V69.875H0.5V73.9432H1.5ZM1.5 65.8068V61.7386H0.5V65.8068H1.5ZM1.5 57.6704V53.6022H0.5V57.6704H1.5ZM1.5 49.5341V47.5H0.5V49.5341H1.5ZM1 48H3.00327V47H1V48ZM7.0098 48H11.0163V47H7.0098V48ZM15.0229 48H19.0294V47H15.0229V48ZM23.0359 48H27.0425V47H23.0359V48ZM31.049 48H35.0556V47H31.049V48ZM39.0621 48H43.0686V47H39.0621V48ZM47.0752 48H51.0817V47H47.0752V48ZM55.0882 48H59.0948V47H55.0882V48ZM63.1013 48H67.1078V47H63.1013V48ZM71.1144 48H75.1209V47H71.1144V48ZM79.1274 48H83.134V47H79.1274V48ZM87.1405 48H91.1471V47H87.1405V48ZM95.1536 48H99.1601V47H95.1536V48ZM103.167 48H107.173V47H103.167V48ZM111.18 48H115.186V47H111.18V48ZM119.193 48H123.199V47H119.193V48ZM127.206 48H131.212V47H127.206V48ZM135.219 48H139.226V47H135.219V48ZM143.232 48H147.239V47H143.232V48ZM151.245 48H155.252V47H151.245V48ZM159.258 48H163.265V47H159.258V48ZM167.271 48H171.278V47H167.271V48ZM175.284 48H179.291V47H175.284V48ZM183.297 48H187.304V47H183.297V48ZM191.31 48H195.317V47H191.31V48ZM199.323 48H203.33V47H199.323V48ZM207.337 48H211.343V47H207.337V48ZM215.35 48H219.356V47H215.35V48ZM223.363 48H227.369V47H223.363V48ZM231.376 48H235.382V47H231.376V48ZM239.389 48H243.395V47H239.389V48ZM247.402 48H251.408V47H247.402V48ZM255.415 48H259.421V47H255.415V48ZM263.428 48H267.435V47H263.428V48ZM271.441 48H275.448V47H271.441V48ZM279.454 48H283.461V47H279.454V48ZM287.467 48H291.474V47H287.467V48ZM295.48 48H299.487V47H295.48V48ZM303.493 48H307.5V47H303.493V48ZM311.506 48H315.513V47H311.506V48ZM319.519 48H323.526V47H319.519V48ZM327.532 48H331.539V47H327.532V48ZM335.546 48H339.552V47H335.546V48ZM343.559 48H347.565V47H343.559V48ZM351.572 48H355.578V47H351.572V48ZM359.585 48H363.591V47H359.585V48ZM367.598 48H371.604V47H367.598V48ZM375.611 48H379.617V47H375.611V48ZM383.624 48H387.63V47H383.624V48ZM391.637 48H395.643V47H391.637V48ZM399.65 48H403.657V47H399.65V48ZM407.663 48H411.67V47H407.663V48ZM415.676 48H419.683V47H415.676V48ZM423.689 48H427.696V47H423.689V48ZM431.702 48H435.709V47H431.702V48ZM439.715 48H443.722V47H439.715V48ZM447.728 48H451.735V47H447.728V48ZM455.741 48H459.748V47H455.741V48ZM463.755 48H467.761V47H463.755V48ZM471.768 48H475.774V47H471.768V48ZM479.781 48H483.787V47H479.781V48ZM487.794 48H491.8V47H487.794V48ZM495.807 48H499.813V47H495.807V48ZM503.82 48H507.826V47H503.82V48ZM511.833 48H515.839V47H511.833V48ZM519.846 48H523.852V47H519.846V48ZM527.859 48H531.866V47H527.859V48ZM535.872 48H539.879V47H535.872V48ZM543.885 48H547.892V47H543.885V48ZM551.898 48H555.905V47H551.898V48ZM559.911 48H563.918V47H559.911V48ZM567.924 48H571.931V47H567.924V48ZM575.937 48H579.944V47H575.937V48ZM583.95 48H587.957V47H583.95V48ZM591.964 48H595.97V47H591.964V48ZM599.977 48H603.983V47H599.977V48ZM607.99 48H611.996V47H607.99V48ZM616.003 48H620.009V47H616.003V48ZM624.016 48H628.022V47H624.016V48ZM632.029 48H636.035V47H632.029V48ZM640.042 48H644.048V47H640.042V48ZM648.055 48H652.061V47H648.055V48ZM656.068 48H660.075V47H656.068V48ZM664.081 48H668.088V47H664.081V48ZM672.094 48H676.101V47H672.094V48ZM680.107 48H684.114V47H680.107V48ZM688.12 48H692.127V47H688.12V48ZM696.133 48H700.14V47H696.133V48ZM704.146 48H708.153V47H704.146V48ZM712.159 48H716.166V47H712.159V48ZM720.172 48H724.179V47H720.172V48ZM728.186 48H732.192V47H728.186V48ZM736.199 48H740.205V47H736.199V48ZM744.212 48H748.218V47H744.212V48ZM752.225 48H756.231V47H752.225V48ZM760.238 48H764.244V47H760.238V48ZM768.251 48H772.257V47H768.251V48ZM776.264 48H780.271V47H776.264V48ZM784.277 48H788.284V47H784.277V48ZM792.29 48H796.297V47H792.29V48ZM800.303 48H804.31V47H800.303V48ZM808.316 48H812.323V47H808.316V48ZM816.329 48H820.336V47H816.329V48ZM824.342 48H828.349V47H824.342V48ZM832.355 48H836.362V47H832.355V48ZM840.368 48H844.375V47H840.368V48ZM848.381 48H852.388V47H848.381V48ZM856.395 48H860.401V47H856.395V48ZM864.408 48H868.414V47H864.408V48ZM872.421 48H876.427V47H872.421V48ZM880.434 48H884.44V47H880.434V48ZM888.447 48H892.453V47H888.447V48ZM896.46 48H900.466V47H896.46V48ZM904.473 48H908.479V47H904.473V48ZM912.486 48H916.492V47H912.486V48ZM920.499 48H924.506V47H920.499V48ZM928.512 48H932.519V47H928.512V48ZM936.525 48H940.532V47H936.525V48ZM944.538 48H948.545V47H944.538V48ZM952.551 48H956.558V47H952.551V48ZM960.564 48H964.571V47H960.564V48ZM968.577 48H972.584V47H968.577V48ZM976.59 48H980.597V47H976.59V48ZM984.604 48H988.61V47H984.604V48ZM992.617 48H996.623V47H992.617V48ZM1000.63 48H1004.64V47H1000.63V48ZM1008.64 48H1012.65V47H1008.64V48ZM1016.66 48H1020.66V47H1016.66V48ZM1024.67 48H1028.68V47H1024.67V48ZM1032.68 48H1036.69V47H1032.68V48ZM1040.7 48H1044.7V47H1040.7V48ZM1048.71 48H1052.71V47H1048.71V48ZM1056.72 48H1060.73V47H1056.72V48ZM1064.73 48H1068.74V47H1064.73V48ZM1072.75 48H1076.75V47H1072.75V48ZM1080.76 48H1084.77V47H1080.76V48ZM1088.77 48H1092.78V47H1088.77V48ZM1096.79 48H1100.79V47H1096.79V48ZM1104.8 48H1108.81V47H1104.8V48ZM1112.81 48H1116.82V47H1112.81V48ZM1120.83 48H1124.83V47H1120.83V48ZM1128.84 48H1132.85V47H1128.84V48ZM1136.85 48H1140.86V47H1136.85V48ZM1144.87 48H1148.87V47H1144.87V48ZM1152.88 48H1156.89V47H1152.88V48ZM1160.89 48H1164.9V47H1160.89V48ZM1168.91 48H1172.91V47H1168.91V48ZM1176.92 48H1180.93V47H1176.92V48ZM1184.93 48H1188.94V47H1184.93V48ZM1192.95 48H1196.95V47H1192.95V48ZM1200.96 48H1204.97V47H1200.96V48ZM1208.97 48H1212.98V47H1208.97V48ZM1216.99 48H1220.99V47H1216.99V48ZM1225 48H1227V47H1225V48ZM1227.5 47.5V45.5208H1226.5V47.5H1227.5ZM1227.5 41.5625V37.6042H1226.5V41.5625H1227.5ZM1227.5 33.6458V29.6875H1226.5V33.6458H1227.5ZM1227.5 25.7292V21.7708H1226.5V25.7292H1227.5ZM1227.5 17.8125V13.8542H1226.5V17.8125H1227.5ZM1227.5 9.89583V5.9375H1226.5V9.89583H1227.5ZM1227.5 1.97917V0H1226.5V1.97917H1227.5Z" fill="#2FAC5D"/>
</svg>
