<svg width="344" height="161" viewBox="0 0 344 161" fill="none" xmlns="http://www.w3.org/2000/svg">
<path opacity="0.7" d="M37.0979 84.8541C37.6966 83.0115 40.3034 83.0115 40.9021 84.8541L47.307 104.566C47.5748 105.39 48.3427 105.948 49.2091 105.948H69.9358C71.8733 105.948 72.6788 108.428 71.1114 109.566L54.3432 121.749C53.6422 122.259 53.3489 123.161 53.6166 123.985L60.0215 143.698C60.6202 145.54 58.5113 147.072 56.9438 145.934L40.1756 133.751C39.4746 133.241 38.5254 133.241 37.8244 133.751L21.0562 145.934C19.4887 147.072 17.3798 145.54 17.9785 143.698L24.3834 123.985C24.6511 123.161 24.3578 122.259 23.6568 121.749L6.88859 109.566C5.32117 108.428 6.12672 105.948 8.06416 105.948H28.7909C29.6573 105.948 30.4252 105.39 30.693 104.566L37.0979 84.8541Z" fill="#D2D4D7"/>
<path opacity="0.7" d="M170.099 5.81451C170.7 3.97651 173.3 3.97651 173.901 5.81451L189.735 54.2456C190.004 55.0679 190.771 55.6241 191.636 55.6241H242.849C244.79 55.6241 245.593 58.1097 244.02 59.2456L202.609 89.1468C201.904 89.6561 201.608 90.5629 201.879 91.3898L217.701 139.786C218.303 141.627 216.2 143.163 214.63 142.029L173.171 112.094C172.472 111.589 171.528 111.589 170.829 112.094L129.37 142.029C127.8 143.163 125.697 141.627 126.299 139.786L142.121 91.3898C142.392 90.5629 142.096 89.6561 141.391 89.1468L99.9799 59.2456C98.4067 58.1097 99.2103 55.6241 101.151 55.6241H152.364C153.229 55.6241 153.996 55.0679 154.265 54.2456L170.099 5.81451Z" fill="#D2D4D7"/>
<path opacity="0.7" d="M303.098 84.8541C303.697 83.0115 306.303 83.0115 306.902 84.8541L313.307 104.566C313.575 105.39 314.343 105.948 315.209 105.948H335.936C337.873 105.948 338.679 108.428 337.111 109.566L320.343 121.749C319.642 122.259 319.349 123.161 319.617 123.985L326.022 143.698C326.62 145.54 324.511 147.072 322.944 145.934L306.176 133.751C305.475 133.241 304.525 133.241 303.824 133.751L287.056 145.934C285.489 147.072 283.38 145.54 283.978 143.698L290.383 123.985C290.651 123.161 290.358 122.259 289.657 121.749L272.889 109.566C271.321 108.428 272.127 105.948 274.064 105.948H294.791C295.657 105.948 296.425 105.39 296.693 104.566L303.098 84.8541Z" fill="#D2D4D7"/>
</svg>
