<svg width="120" height="154" viewBox="0 0 120 154" fill="none" xmlns="http://www.w3.org/2000/svg">
<path opacity="0.5" d="M83.0679 53.3969C82.347 52.4752 81.1797 52.4752 80.4629 53.3969C79.7421 54.3186 79.7421 55.8111 80.4629 56.7276C81.1838 57.6493 82.3511 57.6493 83.0679 56.7276C83.7887 55.8059 83.7887 54.3186 83.0679 53.3969ZM101.315 58.5815C98.8368 61.7499 94.8147 61.7499 92.3368 58.5815C89.8588 55.4131 89.8588 50.2704 92.3368 47.102C94.8147 43.9336 98.8368 43.9336 101.315 47.102C103.793 50.2704 103.797 55.4079 101.315 58.5815ZM120 0.120682C116.039 3.18433 112.034 5.55147 110.199 14.1716C107.741 25.7297 112.046 37.403 111.518 48.9402C109.789 86.5263 80.4629 55.5912 66.4429 71.098C55.0933 83.6459 61.6958 104.254 46.5413 113.036C37.1741 118.467 27.0574 118.975 17.9646 126.034C9.6419 132.497 1.88439 141.264 0.5 154L11.0345 154C11.0263 153.817 11.0222 153.628 11.0222 153.45C11.0099 149.334 12.8407 145.678 14.8805 142.678C18.1326 137.891 22.0605 133.764 26.1235 130.151C28.1714 128.328 30.1948 126.658 32.6031 125.731C33.6926 125.312 39.3285 123.62 40.8931 124.348C42.4413 125.071 43.4325 127.186 43.0516 129.26C42.2775 133.487 37.9564 132.89 35.5112 134.235C31.5874 136.393 28.6425 140.918 27.1844 145.977C26.4021 148.69 25.8122 151.465 24.8456 153.995L120 153.995L120 26.1853C118.779 30.9772 117.915 35.9943 117.62 40.9747C117.547 42.2577 116.15 42.3101 115.9 41.2889C115.192 40.0215 115.155 38.5866 114.868 37.0888C114.667 36.0414 113.144 26.0439 112.984 22.4671C112.783 18.0365 113.316 12.679 115.712 9.25928C116.58 8.02335 117.637 6.90262 119.009 6.96547C119.345 6.98117 119.676 7.06499 120 7.18544L120 0.120682ZM51.8945 118.776C54.2701 119.739 55.1097 122.929 53.7499 125.553C53.1642 126.684 52.2468 127.684 51.1573 127.757C51.059 127.831 50.9525 127.893 50.8337 127.935C48.4008 128.873 46.7297 125.542 46.9222 122.777C47.1474 119.588 49.5558 117.828 51.8945 118.776Z" fill="url(#paint0_linear_6671_87430)"/>
<defs>
<linearGradient id="paint0_linear_6671_87430" x1="119.273" y1="152.526" x2="45.1289" y2="94.5387" gradientUnits="userSpaceOnUse">
<stop stop-color="white"/>
<stop offset="1" stop-color="white" stop-opacity="0.2"/>
</linearGradient>
</defs>
</svg>
