<svg width="40" height="40" viewBox="0 0 40 40" fill="none" xmlns="http://www.w3.org/2000/svg">
<path fill-rule="evenodd" clip-rule="evenodd" d="M32.9499 13.4817C32.9612 13.7732 32.965 14.0645 32.965 14.356C32.965 23.193 26.7486 33.3948 15.381 33.3948C11.889 33.3948 8.64202 32.2819 5.90625 30.3873C6.38985 30.4403 6.88098 30.4801 7.37965 30.4801C10.2749 30.4801 12.9416 29.4067 15.0569 27.6049C12.3525 27.5651 10.069 25.6176 9.28139 22.9678C9.65947 23.0473 10.0488 23.0871 10.447 23.0871C11.0085 23.0871 11.5536 23.0077 12.0762 22.8488C9.24619 22.2393 7.11462 19.5366 7.11462 16.2906C7.11462 16.2509 7.11462 16.2375 7.11462 16.2111C7.94866 16.7013 8.90328 17.0058 9.91695 17.0456C8.25639 15.8399 7.16483 13.7864 7.16483 11.4678C7.16483 10.249 7.46881 9.09625 8.0039 8.10258C11.0512 12.1567 15.6071 14.8198 20.7432 15.098C20.6377 14.6078 20.5837 14.0912 20.5837 13.5745C20.5837 9.8781 23.3509 6.88379 26.7649 6.88379C28.5423 6.88379 30.1476 7.69209 31.2743 8.99048C32.6849 8.699 34.0063 8.14259 35.2021 7.37415C34.7386 8.93752 33.7601 10.2489 32.4814 11.0703C33.7325 10.9113 34.9258 10.5539 36.0324 10.0239C35.2021 11.3621 34.157 12.541 32.9499 13.4817Z" fill="#1EA1F2"/>
</svg>
