<svg width="137" height="16" viewBox="0 0 137 16" fill="none" xmlns="http://www.w3.org/2000/svg">
<path fill-rule="evenodd" clip-rule="evenodd" d="M121.193 2.0816C103.025 0.260911 67.8044 -0.556542 49.3532 0.409539C31.8191 1.33846 11.1844 4.45966 2.29717 4.45966C-0.0392486 4.45966 -0.192121 4.49681 0.157251 5.09132C0.681308 5.98308 4.96113 6.16887 12.5164 5.61151C18.3683 5.20279 18.4993 5.20279 19.4164 5.94593C20.3335 6.68907 20.4864 6.68907 25.989 6.3175C36.7322 5.57436 44.2218 4.75691 47.2788 4.79407C50.052 4.83122 50.5105 5.50005 45.3355 5.90877C33.3258 6.91201 33.1948 6.94916 33.9809 8.24966C34.3302 8.84417 34.7888 8.91848 38.8502 8.80701C43.3047 8.69554 43.1519 8.50976 43.6759 9.36437C44.0253 9.92172 44.4839 10.219 44.9642 10.2561C48.6545 10.3304 59.0483 10.7392 59.0483 10.7392C56.2096 10.8878 52.7378 11.3708 52.5631 11.6681C51.777 13.0058 52.8033 13.1172 65.861 13.4516C80.5565 13.786 91.6927 15.0494 93.0902 15.9412C93.4396 16.1641 93.6361 15.7182 93.3959 15.198C92.5661 13.4888 78.6568 12.9314 72.914 12.4112C71.7348 12.2998 70.9924 11.6309 74.1368 11.4452C81.6046 11.0364 78.9188 9.73594 78.1109 9.62447C77.0191 9.47584 74.508 9.51299 68.3066 9.32721C65.3151 9.25289 66.4943 8.62122 68.4377 8.58407C86.3866 8.17534 88.9851 8.43544 88.9851 8.24966C88.9851 7.02348 88.3518 6.87486 80.4255 6.68907C73.4162 6.50329 75.0102 5.76015 79.4865 5.72299C86.0809 5.68583 98.7238 6.05739 98.8985 5.61151C99.2479 4.60827 98.3308 3.97661 96.2127 3.71652C92.8937 3.30779 106.257 3.75367 115.93 4.34818C133.988 5.46289 137.002 6.72622 137.002 5.46289C137.046 3.71651 136.543 3.60504 121.193 2.0816Z" fill="#30AF5E"/>
</svg>
