<svg width="28" height="22" viewBox="0 0 28 22" fill="none" xmlns="http://www.w3.org/2000/svg">
<path d="M20.6641 14.9997C19.7307 14.9997 18.9418 14.6775 18.2974 14.033C17.653 13.3886 17.3307 12.5997 17.3307 11.6663C17.3307 10.733 17.653 9.94412 18.2974 9.29967C18.9418 8.65523 19.7307 8.33301 20.6641 8.33301C21.5974 8.33301 22.3863 8.65523 23.0307 9.29967C23.6752 9.94412 23.9974 10.733 23.9974 11.6663C23.9974 12.5997 23.6752 13.3886 23.0307 14.033C22.3863 14.6775 21.5974 14.9997 20.6641 14.9997ZM15.3307 21.6663C14.953 21.6663 14.6365 21.5383 14.3814 21.2823C14.1254 21.0272 13.9974 20.7108 13.9974 20.333V19.7997C13.9974 19.2663 14.1361 18.7721 14.4134 18.317C14.6916 17.861 15.0863 17.533 15.5974 17.333C16.3974 16.9997 17.2254 16.7499 18.0814 16.5837C18.9365 16.4166 19.7974 16.333 20.6641 16.333C21.5307 16.333 22.3921 16.4166 23.2481 16.5837C24.1032 16.7499 24.9307 16.9997 25.7307 17.333C26.2418 17.533 26.6365 17.861 26.9147 18.317C27.1921 18.7721 27.3307 19.2663 27.3307 19.7997V20.333C27.3307 20.7108 27.2027 21.0272 26.9467 21.2823C26.6916 21.5383 26.3752 21.6663 25.9974 21.6663H15.3307ZM11.3307 10.9997C9.86406 10.9997 8.60851 10.4775 7.56406 9.43301C6.51962 8.38856 5.9974 7.13301 5.9974 5.66634C5.9974 4.19967 6.51962 2.94412 7.56406 1.89967C8.60851 0.85523 9.86406 0.333008 11.3307 0.333008C12.7974 0.333008 14.0529 0.85523 15.0974 1.89967C16.1418 2.94412 16.6641 4.19967 16.6641 5.66634C16.6641 7.13301 16.1418 8.38856 15.0974 9.43301C14.0529 10.4775 12.7974 10.9997 11.3307 10.9997ZM1.9974 21.6663C1.61962 21.6663 1.30317 21.5383 1.04806 21.2823C0.792063 21.0272 0.664062 20.7108 0.664062 20.333V17.6663C0.664062 17.0886 0.864063 16.5166 1.26406 15.9503C1.66406 15.3832 2.25295 14.8886 3.03073 14.4663C4.23073 13.8219 5.54184 13.3055 6.96406 12.917C8.38628 12.5277 9.84184 12.333 11.3307 12.333C11.9307 12.333 12.5698 12.3775 13.2481 12.4663C13.9254 12.5552 14.6196 12.6886 15.3307 12.8663V14.5997C15.0196 14.7108 14.7529 14.8219 14.5307 14.933C14.3085 15.0441 14.0752 15.1663 13.8307 15.2997C13.0085 15.7663 12.3863 16.3775 11.9641 17.133C11.5418 17.8886 11.3307 18.5108 11.3307 18.9997V21.6663H1.9974Z" fill="#959DB0"/>
</svg>
