<svg width="22" height="22" viewBox="0 0 22 22" fill="none" xmlns="http://www.w3.org/2000/svg">
<path d="M11.0026 0.333008C12.4171 0.333008 13.7736 0.894911 14.7738 1.8951C15.774 2.8953 16.3359 4.25185 16.3359 5.66634C16.3359 7.08083 15.774 8.43738 14.7738 9.43758C13.7736 10.4378 12.4171 10.9997 11.0026 10.9997C9.58812 10.9997 8.23156 10.4378 7.23137 9.43758C6.23117 8.43738 5.66927 7.08083 5.66927 5.66634C5.66927 4.25185 6.23117 2.8953 7.23137 1.8951C8.23156 0.894911 9.58812 0.333008 11.0026 0.333008ZM11.0026 13.6663C16.8959 13.6663 21.6693 16.053 21.6693 18.9997V21.6663H0.335938V18.9997C0.335938 16.053 5.10927 13.6663 11.0026 13.6663Z" fill="#959DB0"/>
</svg>
