<svg width="24" height="24" viewBox="0 0 24 24" fill="none" xmlns="http://www.w3.org/2000/svg">
<g clip-path="url(#clip0_6635_86431)">
<path d="M24.003 12.0735C24.003 5.40454 18.63 -0.00146484 12.003 -0.00146484C5.373 3.51563e-05 0 5.40454 0 12.075C0 18.1005 4.389 23.0955 10.125 24.0015V15.564H7.08V12.075H10.128V9.41253C10.128 6.38704 11.9205 4.71603 14.661 4.71603C15.975 4.71603 17.3475 4.95154 17.3475 4.95154V7.92154H15.834C14.3445 7.92154 13.8795 8.85303 13.8795 9.80853V12.0735H17.2065L16.6755 15.5625H13.878V24C19.614 23.094 24.003 18.099 24.003 12.0735Z" fill="#6B6B6B"/>
</g>
<defs>
<clipPath id="clip0_6635_86431">
<rect width="24" height="24" fill="white"/>
</clipPath>
</defs>
</svg>
