<svg width="2613" height="1408" viewBox="0 0 2613 1408" fill="none" xmlns="http://www.w3.org/2000/svg">
<mask id="mask0_6460_85569" style="mask-type:alpha" maskUnits="userSpaceOnUse" x="0" y="0" width="2613" height="1408">
<path d="M2613 0H0V1408H2613V0Z" fill="white"/>
</mask>
<g mask="url(#mask0_6460_85569)">
<path d="M2584.7 435.203L-1735.4 765.063L-903.222 -91.2936L-1063.37 -693.598L-1281.5 300.249L-544.662 1368.4L848.394 80.3701L1220.07 -625.672L1509.76 517.441L2584.7 435.203ZM2584.7 435.203L2240.16 806.537L1338.5 -142.5L-432.496 665.344L-674.848 80.3701L321.726 309.483L154.535 1269.3L1509.76 517.441L1709.79 1028.13L-123.114 80.3701L-491.168 -617.756L313.836 -409.779L-123.114 80.3701" stroke="url(#paint0_linear_6460_85569)" stroke-width="5" stroke-linecap="round"/>
<g opacity="0.251106">
<g opacity="0.522218" filter="url(#filter0_f_6460_85569)">
<path d="M2584.5 457C2600.24 457 2613 444.24 2613 428.5C2613 412.76 2600.24 400 2584.5 400C2568.76 400 2556 412.76 2556 428.5C2556 444.24 2568.76 457 2584.5 457Z" fill="url(#paint1_linear_6460_85569)"/>
</g>
<g opacity="0.251106" filter="url(#filter1_f_6460_85569)">
<path d="M2584.5 440C2590.85 440 2596 434.851 2596 428.5C2596 422.149 2590.85 417 2584.5 417C2578.15 417 2573 422.149 2573 428.5C2573 434.851 2578.15 440 2584.5 440Z" fill="#5CF795"/>
</g>
</g>
<g opacity="0.9">
<g opacity="0.522218" filter="url(#filter2_f_6460_85569)">
<path d="M1135.5 775C1160.63 775 1181 754.629 1181 729.5C1181 704.371 1160.63 684 1135.5 684C1110.37 684 1090 704.371 1090 729.5C1090 754.629 1110.37 775 1135.5 775Z" fill="url(#paint2_linear_6460_85569)"/>
</g>
<g opacity="0.9" filter="url(#filter3_f_6460_85569)">
<path d="M1135.5 748C1145.72 748 1154 739.717 1154 729.5C1154 719.283 1145.72 711 1135.5 711C1125.28 711 1117 719.283 1117 729.5C1117 739.717 1125.28 748 1135.5 748Z" fill="#5CF795"/>
</g>
</g>
<g opacity="0.8">
<g opacity="0.522218" filter="url(#filter4_f_6460_85569)">
<path d="M1506.5 543C1522.24 543 1535 530.24 1535 514.5C1535 498.76 1522.24 486 1506.5 486C1490.76 486 1478 498.76 1478 514.5C1478 530.24 1490.76 543 1506.5 543Z" fill="url(#paint3_linear_6460_85569)"/>
</g>
<g opacity="0.8" filter="url(#filter5_f_6460_85569)">
<path d="M1506.5 526C1512.85 526 1518 520.851 1518 514.5C1518 508.149 1512.85 503 1506.5 503C1500.15 503 1495 508.149 1495 514.5C1495 520.851 1500.15 526 1506.5 526Z" fill="#5CF795"/>
</g>
</g>
<g opacity="0.7">
<g opacity="0.522218" filter="url(#filter6_f_6460_85569)">
<path d="M2248.5 832C2264.24 832 2277 819.24 2277 803.5C2277 787.76 2264.24 775 2248.5 775C2232.76 775 2220 787.76 2220 803.5C2220 819.24 2232.76 832 2248.5 832Z" fill="url(#paint4_linear_6460_85569)"/>
</g>
<g opacity="0.7" filter="url(#filter7_f_6460_85569)">
<path d="M2248.5 815C2254.85 815 2260 809.851 2260 803.5C2260 797.149 2254.85 792 2248.5 792C2242.15 792 2237 797.149 2237 803.5C2237 809.851 2242.15 815 2248.5 815Z" fill="#5CF795"/>
</g>
</g>
<g opacity="0.8">
<g opacity="0.522218" filter="url(#filter8_f_6460_85569)">
<path d="M1940.5 514C1956.24 514 1969 501.24 1969 485.5C1969 469.76 1956.24 457 1940.5 457C1924.76 457 1912 469.76 1912 485.5C1912 501.24 1924.76 514 1940.5 514Z" fill="url(#paint5_linear_6460_85569)"/>
</g>
<g opacity="0.8" filter="url(#filter9_f_6460_85569)">
<path d="M1940.5 497C1946.85 497 1952 491.851 1952 485.5C1952 479.149 1946.85 474 1940.5 474C1934.15 474 1929 479.149 1929 485.5C1929 491.851 1934.15 497 1940.5 497Z" fill="#5CF795"/>
</g>
</g>
<g opacity="0.8">
<g opacity="0.522218" filter="url(#filter10_f_6460_85569)">
<path d="M1715.5 1057C1731.24 1057 1744 1044.24 1744 1028.5C1744 1012.76 1731.24 1000 1715.5 1000C1699.76 1000 1687 1012.76 1687 1028.5C1687 1044.24 1699.76 1057 1715.5 1057Z" fill="url(#paint6_linear_6460_85569)"/>
</g>
<g opacity="0.8" filter="url(#filter11_f_6460_85569)">
<path d="M1715.5 1040C1721.85 1040 1727 1034.85 1727 1028.5C1727 1022.15 1721.85 1017 1715.5 1017C1709.15 1017 1704 1022.15 1704 1028.5C1704 1034.85 1709.15 1040 1715.5 1040Z" fill="#5CF795"/>
</g>
</g>
<g opacity="0.522218" filter="url(#filter12_f_6460_85569)">
<path d="M270.5 657C295.629 657 316 636.629 316 611.5C316 586.371 295.629 566 270.5 566C245.371 566 225 586.371 225 611.5C225 636.629 245.371 657 270.5 657Z" fill="url(#paint7_linear_6460_85569)"/>
</g>
<g filter="url(#filter13_f_6460_85569)">
<path d="M270.5 630C280.717 630 289 621.717 289 611.5C289 601.283 280.717 593 270.5 593C260.283 593 252 601.283 252 611.5C252 621.717 260.283 630 270.5 630Z" fill="#5CF795"/>
</g>
<g opacity="0.522218" filter="url(#filter14_f_6460_85569)">
<path d="M325 375C359.794 375 388 346.794 388 312C388 277.206 359.794 249 325 249C290.206 249 262 277.206 262 312C262 346.794 290.206 375 325 375Z" fill="url(#paint8_linear_6460_85569)"/>
</g>
<g filter="url(#filter15_f_6460_85569)">
<path d="M325.5 337C339.583 337 351 325.583 351 311.5C351 297.417 339.583 286 325.5 286C311.417 286 300 297.417 300 311.5C300 325.583 311.417 337 325.5 337Z" fill="#5CF795"/>
</g>
<g opacity="0.9">
<g opacity="0.522218" filter="url(#filter16_f_6460_85569)">
<path d="M850.5 126C875.629 126 896 105.629 896 80.5C896 55.371 875.629 35 850.5 35C825.371 35 805 55.371 805 80.5C805 105.629 825.371 126 850.5 126Z" fill="url(#paint9_linear_6460_85569)"/>
</g>
<g opacity="0.9" filter="url(#filter17_f_6460_85569)">
<path d="M850.5 99C860.717 99 869 90.7173 869 80.5C869 70.2827 860.717 62 850.5 62C840.283 62 832 70.2827 832 80.5C832 90.7173 840.283 99 850.5 99Z" fill="#5CF795"/>
</g>
</g>
<g opacity="0.9">
<g opacity="0.522218" filter="url(#filter18_f_6460_85569)">
<path d="M820.5 612C845.629 612 866 591.629 866 566.5C866 541.371 845.629 521 820.5 521C795.371 521 775 541.371 775 566.5C775 591.629 795.371 612 820.5 612Z" fill="url(#paint10_linear_6460_85569)"/>
</g>
<g opacity="0.9" filter="url(#filter19_f_6460_85569)">
<path d="M820.5 585C830.717 585 839 576.717 839 566.5C839 556.283 830.717 548 820.5 548C810.283 548 802 556.283 802 566.5C802 576.717 810.283 585 820.5 585Z" fill="#5CF795"/>
</g>
</g>
<g opacity="0.522218" filter="url(#filter20_f_6460_85569)">
<path d="M501.5 446C526.629 446 547 425.629 547 400.5C547 375.371 526.629 355 501.5 355C476.371 355 456 375.371 456 400.5C456 425.629 476.371 446 501.5 446Z" fill="url(#paint11_linear_6460_85569)"/>
</g>
<g filter="url(#filter21_f_6460_85569)">
<path d="M501.5 419C511.717 419 520 410.717 520 400.5C520 390.283 511.717 382 501.5 382C491.283 382 483 390.283 483 400.5C483 410.717 491.283 419 501.5 419Z" fill="#5CF795"/>
</g>
<g opacity="0.522218" filter="url(#filter22_f_6460_85569)">
<path d="M156.5 1317C181.629 1317 202 1296.63 202 1271.5C202 1246.37 181.629 1226 156.5 1226C131.371 1226 111 1246.37 111 1271.5C111 1296.63 131.371 1317 156.5 1317Z" fill="url(#paint12_linear_6460_85569)"/>
</g>
<g filter="url(#filter23_f_6460_85569)">
<path d="M156.5 1290C166.717 1290 175 1281.72 175 1271.5C175 1261.28 166.717 1253 156.5 1253C146.283 1253 138 1261.28 138 1271.5C138 1281.72 146.283 1290 156.5 1290Z" fill="#5CF795"/>
</g>
</g>
<defs>
<filter id="filter0_f_6460_85569" x="2536" y="380" width="97" height="97" filterUnits="userSpaceOnUse" color-interpolation-filters="sRGB">
<feFlood flood-opacity="0" result="BackgroundImageFix"/>
<feBlend mode="normal" in="SourceGraphic" in2="BackgroundImageFix" result="shape"/>
<feGaussianBlur stdDeviation="10" result="effect1_foregroundBlur_6460_85569"/>
</filter>
<filter id="filter1_f_6460_85569" x="2563" y="407" width="43" height="43" filterUnits="userSpaceOnUse" color-interpolation-filters="sRGB">
<feFlood flood-opacity="0" result="BackgroundImageFix"/>
<feBlend mode="normal" in="SourceGraphic" in2="BackgroundImageFix" result="shape"/>
<feGaussianBlur stdDeviation="5" result="effect1_foregroundBlur_6460_85569"/>
</filter>
<filter id="filter2_f_6460_85569" x="1070" y="664" width="131" height="131" filterUnits="userSpaceOnUse" color-interpolation-filters="sRGB">
<feFlood flood-opacity="0" result="BackgroundImageFix"/>
<feBlend mode="normal" in="SourceGraphic" in2="BackgroundImageFix" result="shape"/>
<feGaussianBlur stdDeviation="10" result="effect1_foregroundBlur_6460_85569"/>
</filter>
<filter id="filter3_f_6460_85569" x="1097" y="691" width="77" height="77" filterUnits="userSpaceOnUse" color-interpolation-filters="sRGB">
<feFlood flood-opacity="0" result="BackgroundImageFix"/>
<feBlend mode="normal" in="SourceGraphic" in2="BackgroundImageFix" result="shape"/>
<feGaussianBlur stdDeviation="10" result="effect1_foregroundBlur_6460_85569"/>
</filter>
<filter id="filter4_f_6460_85569" x="1458" y="466" width="97" height="97" filterUnits="userSpaceOnUse" color-interpolation-filters="sRGB">
<feFlood flood-opacity="0" result="BackgroundImageFix"/>
<feBlend mode="normal" in="SourceGraphic" in2="BackgroundImageFix" result="shape"/>
<feGaussianBlur stdDeviation="10" result="effect1_foregroundBlur_6460_85569"/>
</filter>
<filter id="filter5_f_6460_85569" x="1485" y="493" width="43" height="43" filterUnits="userSpaceOnUse" color-interpolation-filters="sRGB">
<feFlood flood-opacity="0" result="BackgroundImageFix"/>
<feBlend mode="normal" in="SourceGraphic" in2="BackgroundImageFix" result="shape"/>
<feGaussianBlur stdDeviation="5" result="effect1_foregroundBlur_6460_85569"/>
</filter>
<filter id="filter6_f_6460_85569" x="2200" y="755" width="97" height="97" filterUnits="userSpaceOnUse" color-interpolation-filters="sRGB">
<feFlood flood-opacity="0" result="BackgroundImageFix"/>
<feBlend mode="normal" in="SourceGraphic" in2="BackgroundImageFix" result="shape"/>
<feGaussianBlur stdDeviation="10" result="effect1_foregroundBlur_6460_85569"/>
</filter>
<filter id="filter7_f_6460_85569" x="2227" y="782" width="43" height="43" filterUnits="userSpaceOnUse" color-interpolation-filters="sRGB">
<feFlood flood-opacity="0" result="BackgroundImageFix"/>
<feBlend mode="normal" in="SourceGraphic" in2="BackgroundImageFix" result="shape"/>
<feGaussianBlur stdDeviation="5" result="effect1_foregroundBlur_6460_85569"/>
</filter>
<filter id="filter8_f_6460_85569" x="1892" y="437" width="97" height="97" filterUnits="userSpaceOnUse" color-interpolation-filters="sRGB">
<feFlood flood-opacity="0" result="BackgroundImageFix"/>
<feBlend mode="normal" in="SourceGraphic" in2="BackgroundImageFix" result="shape"/>
<feGaussianBlur stdDeviation="10" result="effect1_foregroundBlur_6460_85569"/>
</filter>
<filter id="filter9_f_6460_85569" x="1919" y="464" width="43" height="43" filterUnits="userSpaceOnUse" color-interpolation-filters="sRGB">
<feFlood flood-opacity="0" result="BackgroundImageFix"/>
<feBlend mode="normal" in="SourceGraphic" in2="BackgroundImageFix" result="shape"/>
<feGaussianBlur stdDeviation="5" result="effect1_foregroundBlur_6460_85569"/>
</filter>
<filter id="filter10_f_6460_85569" x="1667" y="980" width="97" height="97" filterUnits="userSpaceOnUse" color-interpolation-filters="sRGB">
<feFlood flood-opacity="0" result="BackgroundImageFix"/>
<feBlend mode="normal" in="SourceGraphic" in2="BackgroundImageFix" result="shape"/>
<feGaussianBlur stdDeviation="10" result="effect1_foregroundBlur_6460_85569"/>
</filter>
<filter id="filter11_f_6460_85569" x="1694" y="1007" width="43" height="43" filterUnits="userSpaceOnUse" color-interpolation-filters="sRGB">
<feFlood flood-opacity="0" result="BackgroundImageFix"/>
<feBlend mode="normal" in="SourceGraphic" in2="BackgroundImageFix" result="shape"/>
<feGaussianBlur stdDeviation="5" result="effect1_foregroundBlur_6460_85569"/>
</filter>
<filter id="filter12_f_6460_85569" x="205" y="546" width="131" height="131" filterUnits="userSpaceOnUse" color-interpolation-filters="sRGB">
<feFlood flood-opacity="0" result="BackgroundImageFix"/>
<feBlend mode="normal" in="SourceGraphic" in2="BackgroundImageFix" result="shape"/>
<feGaussianBlur stdDeviation="10" result="effect1_foregroundBlur_6460_85569"/>
</filter>
<filter id="filter13_f_6460_85569" x="232" y="573" width="77" height="77" filterUnits="userSpaceOnUse" color-interpolation-filters="sRGB">
<feFlood flood-opacity="0" result="BackgroundImageFix"/>
<feBlend mode="normal" in="SourceGraphic" in2="BackgroundImageFix" result="shape"/>
<feGaussianBlur stdDeviation="10" result="effect1_foregroundBlur_6460_85569"/>
</filter>
<filter id="filter14_f_6460_85569" x="230" y="217" width="190" height="190" filterUnits="userSpaceOnUse" color-interpolation-filters="sRGB">
<feFlood flood-opacity="0" result="BackgroundImageFix"/>
<feBlend mode="normal" in="SourceGraphic" in2="BackgroundImageFix" result="shape"/>
<feGaussianBlur stdDeviation="16" result="effect1_foregroundBlur_6460_85569"/>
</filter>
<filter id="filter15_f_6460_85569" x="280" y="266" width="91" height="91" filterUnits="userSpaceOnUse" color-interpolation-filters="sRGB">
<feFlood flood-opacity="0" result="BackgroundImageFix"/>
<feBlend mode="normal" in="SourceGraphic" in2="BackgroundImageFix" result="shape"/>
<feGaussianBlur stdDeviation="10" result="effect1_foregroundBlur_6460_85569"/>
</filter>
<filter id="filter16_f_6460_85569" x="785" y="15" width="131" height="131" filterUnits="userSpaceOnUse" color-interpolation-filters="sRGB">
<feFlood flood-opacity="0" result="BackgroundImageFix"/>
<feBlend mode="normal" in="SourceGraphic" in2="BackgroundImageFix" result="shape"/>
<feGaussianBlur stdDeviation="10" result="effect1_foregroundBlur_6460_85569"/>
</filter>
<filter id="filter17_f_6460_85569" x="812" y="42" width="77" height="77" filterUnits="userSpaceOnUse" color-interpolation-filters="sRGB">
<feFlood flood-opacity="0" result="BackgroundImageFix"/>
<feBlend mode="normal" in="SourceGraphic" in2="BackgroundImageFix" result="shape"/>
<feGaussianBlur stdDeviation="10" result="effect1_foregroundBlur_6460_85569"/>
</filter>
<filter id="filter18_f_6460_85569" x="755" y="501" width="131" height="131" filterUnits="userSpaceOnUse" color-interpolation-filters="sRGB">
<feFlood flood-opacity="0" result="BackgroundImageFix"/>
<feBlend mode="normal" in="SourceGraphic" in2="BackgroundImageFix" result="shape"/>
<feGaussianBlur stdDeviation="10" result="effect1_foregroundBlur_6460_85569"/>
</filter>
<filter id="filter19_f_6460_85569" x="782" y="528" width="77" height="77" filterUnits="userSpaceOnUse" color-interpolation-filters="sRGB">
<feFlood flood-opacity="0" result="BackgroundImageFix"/>
<feBlend mode="normal" in="SourceGraphic" in2="BackgroundImageFix" result="shape"/>
<feGaussianBlur stdDeviation="10" result="effect1_foregroundBlur_6460_85569"/>
</filter>
<filter id="filter20_f_6460_85569" x="436" y="335" width="131" height="131" filterUnits="userSpaceOnUse" color-interpolation-filters="sRGB">
<feFlood flood-opacity="0" result="BackgroundImageFix"/>
<feBlend mode="normal" in="SourceGraphic" in2="BackgroundImageFix" result="shape"/>
<feGaussianBlur stdDeviation="10" result="effect1_foregroundBlur_6460_85569"/>
</filter>
<filter id="filter21_f_6460_85569" x="463" y="362" width="77" height="77" filterUnits="userSpaceOnUse" color-interpolation-filters="sRGB">
<feFlood flood-opacity="0" result="BackgroundImageFix"/>
<feBlend mode="normal" in="SourceGraphic" in2="BackgroundImageFix" result="shape"/>
<feGaussianBlur stdDeviation="10" result="effect1_foregroundBlur_6460_85569"/>
</filter>
<filter id="filter22_f_6460_85569" x="91" y="1206" width="131" height="131" filterUnits="userSpaceOnUse" color-interpolation-filters="sRGB">
<feFlood flood-opacity="0" result="BackgroundImageFix"/>
<feBlend mode="normal" in="SourceGraphic" in2="BackgroundImageFix" result="shape"/>
<feGaussianBlur stdDeviation="10" result="effect1_foregroundBlur_6460_85569"/>
</filter>
<filter id="filter23_f_6460_85569" x="118" y="1233" width="77" height="77" filterUnits="userSpaceOnUse" color-interpolation-filters="sRGB">
<feFlood flood-opacity="0" result="BackgroundImageFix"/>
<feBlend mode="normal" in="SourceGraphic" in2="BackgroundImageFix" result="shape"/>
<feGaussianBlur stdDeviation="10" result="effect1_foregroundBlur_6460_85569"/>
</filter>
<linearGradient id="paint0_linear_6460_85569" x1="2584.7" y1="337.402" x2="-1735.4" y2="337.403" gradientUnits="userSpaceOnUse">
<stop stop-color="#2FAC5D" stop-opacity="0"/>
<stop offset="1" stop-color="#66FF9E"/>
</linearGradient>
<linearGradient id="paint1_linear_6460_85569" x1="2602.45" y1="450.348" x2="2544.76" y2="400" gradientUnits="userSpaceOnUse">
<stop stop-color="#156742"/>
<stop offset="0.510573" stop-color="#2FAC5D"/>
<stop offset="1" stop-color="#CBFFDE"/>
</linearGradient>
<linearGradient id="paint2_linear_6460_85569" x1="1164.15" y1="764.38" x2="1072.05" y2="684" gradientUnits="userSpaceOnUse">
<stop stop-color="#156742"/>
<stop offset="0.510573" stop-color="#2FAC5D"/>
<stop offset="1" stop-color="#CBFFDE"/>
</linearGradient>
<linearGradient id="paint3_linear_6460_85569" x1="1524.45" y1="536.348" x2="1466.76" y2="486" gradientUnits="userSpaceOnUse">
<stop stop-color="#156742"/>
<stop offset="0.510573" stop-color="#2FAC5D"/>
<stop offset="1" stop-color="#CBFFDE"/>
</linearGradient>
<linearGradient id="paint4_linear_6460_85569" x1="2266.45" y1="825.348" x2="2208.76" y2="775" gradientUnits="userSpaceOnUse">
<stop stop-color="#156742"/>
<stop offset="0.510573" stop-color="#2FAC5D"/>
<stop offset="1" stop-color="#CBFFDE"/>
</linearGradient>
<linearGradient id="paint5_linear_6460_85569" x1="1958.45" y1="507.348" x2="1900.76" y2="457" gradientUnits="userSpaceOnUse">
<stop stop-color="#156742"/>
<stop offset="0.510573" stop-color="#2FAC5D"/>
<stop offset="1" stop-color="#CBFFDE"/>
</linearGradient>
<linearGradient id="paint6_linear_6460_85569" x1="1733.45" y1="1050.35" x2="1675.76" y2="1000" gradientUnits="userSpaceOnUse">
<stop stop-color="#156742"/>
<stop offset="0.510573" stop-color="#2FAC5D"/>
<stop offset="1" stop-color="#CBFFDE"/>
</linearGradient>
<linearGradient id="paint7_linear_6460_85569" x1="299.151" y1="646.38" x2="207.048" y2="566" gradientUnits="userSpaceOnUse">
<stop stop-color="#156742"/>
<stop offset="0.510573" stop-color="#2FAC5D"/>
<stop offset="1" stop-color="#CBFFDE"/>
</linearGradient>
<linearGradient id="paint8_linear_6460_85569" x1="364.671" y1="360.296" x2="237.143" y2="249" gradientUnits="userSpaceOnUse">
<stop stop-color="#156742"/>
<stop offset="0.510573" stop-color="#2FAC5D"/>
<stop offset="1" stop-color="#CBFFDE"/>
</linearGradient>
<linearGradient id="paint9_linear_6460_85569" x1="879.151" y1="115.38" x2="787.048" y2="35" gradientUnits="userSpaceOnUse">
<stop stop-color="#156742"/>
<stop offset="0.510573" stop-color="#2FAC5D"/>
<stop offset="1" stop-color="#CBFFDE"/>
</linearGradient>
<linearGradient id="paint10_linear_6460_85569" x1="849.151" y1="601.38" x2="757.048" y2="521" gradientUnits="userSpaceOnUse">
<stop stop-color="#156742"/>
<stop offset="0.510573" stop-color="#2FAC5D"/>
<stop offset="1" stop-color="#CBFFDE"/>
</linearGradient>
<linearGradient id="paint11_linear_6460_85569" x1="530.151" y1="435.38" x2="438.048" y2="355" gradientUnits="userSpaceOnUse">
<stop stop-color="#156742"/>
<stop offset="0.510573" stop-color="#2FAC5D"/>
<stop offset="1" stop-color="#CBFFDE"/>
</linearGradient>
<linearGradient id="paint12_linear_6460_85569" x1="185.151" y1="1306.38" x2="93.0476" y2="1226" gradientUnits="userSpaceOnUse">
<stop stop-color="#156742"/>
<stop offset="0.510573" stop-color="#2FAC5D"/>
<stop offset="1" stop-color="#CBFFDE"/>
</linearGradient>
</defs>
</svg>
