<svg width="175" height="228" viewBox="0 0 175 228" fill="none" xmlns="http://www.w3.org/2000/svg">
<g opacity="0.03">
<path d="M139.32 166.445C133.296 170.486 127.121 171.274 121.098 166.623C115.125 162.023 114.566 155.72 116.879 147.994C109.051 149.697 102.012 149.646 97.3863 142.683C93.4217 136.71 94.3874 130.865 98.3012 125.223C98.784 124.74 99.2669 124.283 99.7498 123.8C102.545 121.792 105.798 119.836 109.051 120.496C114.998 121.691 113.905 118.946 114.236 114.753C114.668 108.958 114.058 106.595 107.577 107.535C105.214 107.865 102.494 105.781 99.9531 104.79C99.2669 104.104 98.5807 103.418 97.8945 102.757C94.4636 96.9882 93.3962 91.1176 97.5641 85.2977C102.189 78.8426 108.721 78.2835 116.752 80.4182C114.719 72.5145 115.024 65.5764 121.962 60.9764C127.909 57.0627 133.754 58.0284 139.345 61.9167C139.828 62.3996 140.285 62.8825 140.768 63.3654C141.912 66.1863 144.377 69.2106 143.945 71.752C142.801 78.6138 146.054 77.3685 150.807 77.7498C156.525 78.2072 157.008 76.6569 156.855 71.7774C156.754 69.0073 158.939 66.1863 160.083 63.3654C160.591 62.8571 161.099 62.3234 161.608 61.8151C167.605 57.5964 173.781 56.8848 179.804 61.4593C185.802 66.0339 186.513 72.2857 184.201 79.9608C191.825 78.6392 198.941 78.3088 203.617 85.3485C207.582 91.3209 206.667 97.1661 202.906 102.859C202.321 103.443 201.737 104.003 201.177 104.587C198.331 105.705 195.358 107.993 192.664 107.688C186.844 107.027 186.92 109.085 186.996 114.016C187.073 118.793 186.793 121.081 192.689 120.42C195.383 120.115 198.356 122.428 201.177 123.546C201.762 124.13 202.346 124.715 202.956 125.299C206.972 131.297 207.76 137.473 203.16 143.445C198.585 149.367 192.435 150.307 184.684 147.766C186.259 155.746 186.005 163.014 178.635 167.589C172.968 171.096 167.377 170.13 161.989 166.699C161.252 165.962 160.54 165.225 159.803 164.513C156.957 160.295 156.22 155.593 157.008 150.688C148.901 149.773 142.166 150.002 143.005 160.752C143.106 162.048 141.683 163.446 140.946 164.793C140.387 165.378 139.853 165.911 139.32 166.445ZM178.152 141.717C173.501 138.896 183.26 130.027 172.892 129.976C167.605 129.95 166.36 131.755 166.411 136.66C166.487 146.952 175.23 137.219 178.152 141.717ZM123.131 141.844C126.002 137.956 136.346 147.181 134.542 134.525C133.093 124.461 126.714 132.39 123.182 129.798C124.63 133.991 123.105 137.498 123.131 141.844ZM178.508 86.6701C166.233 87.9408 166.538 87.9916 166.182 90.838C164.988 100.724 172.459 97.3694 178.254 98.9197C176.526 94.3197 177.873 90.5584 178.508 86.6701ZM123.029 86.1364C123.715 90.6093 124.147 94.4468 123.461 98.7672C126.841 95.7429 133.627 103.215 134.77 93.2524C136.168 80.9265 125.774 90.7109 123.029 86.1364ZM145.8 113.355C146.003 115.973 144.021 119.734 149.383 118.666C152.103 118.133 155.61 120.064 155.152 114.422C154.847 110.585 154.644 109.085 150.248 109.365C146.944 109.568 144.58 109.238 145.8 113.355Z" fill="#959DB0"/>
<path d="M140.818 63.3655C140.335 62.8826 139.878 62.3997 139.395 61.9169C139.319 61.3069 139.395 60.6208 139.166 60.0871C136.04 53.1999 135.939 46.6938 142.343 41.6619C147.553 37.5702 153.424 37.5448 158.659 41.611C165.089 46.5922 165.012 53.1236 161.963 60.0108C161.734 60.5445 161.785 61.2307 161.709 61.8406C161.2 62.3489 160.692 62.8826 160.184 63.3909C153.703 66.0085 147.248 65.9577 140.818 63.3655Z" fill="#959DB0"/>
<path d="M159.774 164.538C160.511 165.275 161.223 166.013 161.96 166.724C162.366 168.198 162.773 169.698 163.154 171.172C164.831 177.474 163.815 183.091 158.224 186.979C153.09 190.537 147.55 190.461 142.492 186.776C137.003 182.76 136.114 177.118 137.969 170.867C138.401 169.393 138.884 167.919 139.316 166.445C139.849 165.911 140.383 165.352 140.917 164.818C147.169 162.175 153.471 162.251 159.774 164.538Z" fill="#959DB0"/>
<path d="M99.7781 123.8C99.2952 124.283 98.8123 124.741 98.3295 125.223C90.7815 127.638 83.2081 129.798 77.5916 121.665C74.3132 116.938 74.2369 111.779 77.3629 106.9C82.7252 98.5894 90.3241 100.419 97.9483 102.707C98.6345 103.393 99.3206 104.079 100.007 104.74C102.472 111.144 102.243 117.498 99.7781 123.8Z" fill="#959DB0"/>
<path d="M88.6938 168.2C81.7811 168.276 75.5547 161.948 75.7835 155.061C75.9868 148.478 81.8828 142.684 88.4651 142.608C95.3777 142.531 101.604 148.86 101.375 155.747C101.197 162.329 95.276 168.123 88.6938 168.2Z" fill="#959DB0"/>
<path d="M122.066 175.569C122.346 182.481 116.17 188.86 109.207 188.86C102.624 188.86 96.652 183.066 96.3724 176.483C96.0929 169.571 102.268 163.192 109.232 163.192C115.84 163.192 121.812 168.961 122.066 175.569Z" fill="#959DB0"/>
<path d="M88.1364 60.0362C94.6424 59.7821 100.818 65.3224 101.352 71.93C101.911 78.7664 95.9894 85.3741 89.026 85.6537C82.1387 85.9332 75.7598 79.783 75.7852 72.8449C75.8106 66.2627 81.5542 60.2904 88.1364 60.0362Z" fill="#959DB0"/>
<path d="M109.279 39.4007C116.217 39.4261 122.342 45.8305 122.011 52.7177C121.706 59.3253 115.708 65.0435 109.152 64.9927C102.214 64.9673 96.0888 58.5629 96.3937 51.6757C96.7241 45.0934 102.722 39.3499 109.279 39.4007Z" fill="#959DB0"/>
<path d="M117.945 195.926C118.987 188.657 123.104 184.769 130.424 184.845C137.413 184.922 142.521 190.868 141.631 197.883C140.691 205.227 136.116 208.913 128.873 208.404C121.478 207.871 118.149 203.093 117.945 195.926Z" fill="#959DB0"/>
<path d="M79.804 134.627C79.2449 141.896 75.5599 146.368 68.0882 146.419C60.6927 146.47 56.3722 142.302 56.2706 134.881C56.1943 127.486 60.3876 123.191 67.7831 123.064C75.2549 122.962 79.0924 127.333 79.804 134.627Z" fill="#959DB0"/>
<path d="M183.162 196.535C182.628 203.727 178.943 208.276 171.573 208.505C164.279 208.708 159.908 204.642 159.273 197.298C158.663 190.283 164.203 184.514 171.217 184.768C178.587 185.048 182.425 189.241 183.162 196.535Z" fill="#959DB0"/>
<path d="M68.4424 81.6382C75.7108 82.5277 79.9041 86.5431 79.6245 93.9386C79.345 101.36 74.8467 105.4 67.502 105.146C60.0811 104.892 56.0657 100.394 56.2944 93.0237C56.5231 85.552 61.1485 82.0194 68.4424 81.6382Z" fill="#959DB0"/>
<path d="M141.809 31.2928C141.021 39.0441 137.158 43.4153 129.712 43.2883C122.291 43.1612 118.072 38.8154 118.174 31.3944C118.275 23.9735 122.647 19.7802 130.042 19.831C137.565 19.8819 141.123 24.5072 141.809 31.2928Z" fill="#959DB0"/>
<path d="M183.087 31.699C182.4 38.942 178.588 43.1353 171.218 43.3895C164.178 43.6436 158.74 37.9763 159.324 30.9366C159.909 23.6173 164.229 19.5765 171.523 19.7798C178.893 19.9831 182.553 24.4814 183.087 31.699Z" fill="#959DB0"/>
<path d="M88.8978 207.54C82.4172 206.803 78.0968 203.397 77.9443 196.891C77.8172 190.411 81.8836 186.192 88.3387 186.039C94.8193 185.887 99.038 189.978 99.1905 196.434C99.3938 202.94 95.1496 206.472 88.8978 207.54Z" fill="#959DB0"/>
<path d="M150.681 228.226C144.302 227.464 139.956 224.058 139.804 217.527C139.677 211.021 143.794 206.777 150.249 206.599C156.755 206.446 160.999 210.563 161.177 217.044C161.38 223.626 157.136 227.184 150.681 228.226Z" fill="#959DB0"/>
<path d="M58.147 114.015C57.1051 120.699 53.547 124.867 47.0664 124.689C40.6367 124.511 36.5704 120.318 36.7229 113.863C36.8754 107.433 41.0941 103.392 47.5493 103.519C54.0553 103.646 57.3084 108.068 58.147 114.015Z" fill="#959DB0"/>
<path d="M150.354 0.0595703C156.707 0.796579 161.027 4.20207 161.129 10.7081C161.256 17.1887 157.164 21.4074 150.709 21.5345C144.229 21.6615 140.035 17.5699 139.883 11.1147C139.73 4.60871 143.949 1.07613 150.354 0.0595703Z" fill="#959DB0"/>
<path d="M99.3969 31.3945C98.6853 37.7226 95.3053 41.9921 88.8247 42.1446C82.3695 42.2717 78.1762 38.2309 78.0237 31.8011C77.8712 25.3459 81.9375 21.1526 88.3672 21.0001C94.8478 20.8222 98.3804 24.9901 99.3969 31.3945Z" fill="#959DB0"/>
<path d="M67.8611 165.2C74.545 166.217 78.713 169.775 78.5351 176.255C78.3826 182.685 74.1892 186.751 67.7341 186.624C61.3043 186.472 57.2635 182.278 57.3652 175.823C57.4922 169.292 61.8888 166.039 67.8611 165.2Z" fill="#959DB0"/>
<path d="M78.7582 51.8781C78.0212 58.3587 74.6412 62.6537 68.1606 62.7808C61.7054 62.9079 57.5121 58.8416 57.3596 52.4118C57.2071 45.9567 61.2733 41.7888 67.7031 41.6109C74.2345 41.433 77.7163 45.6771 78.7582 51.8781Z" fill="#959DB0"/>
<path d="M46.9148 165.225C40.6883 164.513 37.2828 161.057 37.6386 154.779C37.9944 148.426 41.959 145.3 48.16 145.707C54.0053 146.088 57.1312 149.722 57.0042 155.542C56.9025 161.921 53.1158 164.92 46.9148 165.225Z" fill="#959DB0"/>
<path d="M47.9568 82.6799C41.3492 82.2987 37.6133 79.1982 37.6133 72.8447C37.6387 66.5165 41.2221 63.0602 47.5248 63.1365C53.37 63.1873 56.7501 66.5165 57.0042 72.3618C57.2838 78.7407 53.7004 81.9429 47.9568 82.6799Z" fill="#959DB0"/>
<path d="M109.56 227.21C102.877 226.651 99.2932 223.322 99.4965 216.969C99.6998 210.59 103.512 207.311 109.789 207.54C115.66 207.769 118.913 211.276 118.989 217.147C119.091 223.627 115.279 226.626 109.56 227.21Z" fill="#959DB0"/>
<path d="M119.069 11.3172C118.357 17.5437 114.901 20.9492 108.624 20.5934C102.27 20.2376 99.1442 16.273 99.5508 10.0719C99.932 4.2267 103.566 1.10078 109.386 1.22785C115.765 1.3295 118.764 5.11621 119.069 11.3172Z" fill="#959DB0"/>
<path d="M26.7086 143.394C21.4479 142.86 18.0678 139.938 18.1949 134.474C18.2965 129.492 21.5241 126.29 26.5307 126.265C31.9693 126.239 35.2986 129.594 35.1969 135.058C35.0698 140.014 31.8168 142.784 26.7086 143.394Z" fill="#959DB0"/>
<path d="M26.436 84.8403C31.1884 85.1453 34.6448 87.5596 35.1276 92.5662C35.6359 98.0302 32.5099 101.639 27.1221 101.944C21.7089 102.224 18.2526 98.9197 18.1764 93.4557C18.1256 88.4491 21.2769 85.6028 26.436 84.8403Z" fill="#959DB0"/>
<path d="M75.7109 11.0881C75.2534 15.7642 72.7883 18.5852 68.0104 18.5598C62.7497 18.5344 60.0049 15.4339 60.3353 10.3002C60.6149 5.5732 63.6391 3.08263 68.3662 3.28595C73.144 3.48926 75.4313 6.41186 75.7109 11.0881Z" fill="#959DB0"/>
<path d="M47.5977 188.861C52.2993 189.369 55.0694 191.885 54.9932 196.714C54.8915 202.025 51.7402 204.719 46.5558 204.338C41.7779 204.008 39.3381 200.907 39.5922 196.155C39.8972 191.326 42.8706 189.064 47.5977 188.861Z" fill="#959DB0"/>
<path d="M67.9357 209.496C72.6628 209.826 75.5854 212.215 75.6617 217.044C75.7379 222.304 72.7645 225.176 67.5292 224.973C62.7259 224.795 60.1591 221.847 60.2607 217.094C60.3624 212.266 63.2087 209.877 67.9357 209.496Z" fill="#959DB0"/>
<path d="M26.1235 168.682C30.6726 169.19 33.6206 171.401 33.7985 175.62C34.0018 180.296 31.0792 183.269 26.403 183.168C22.2097 183.091 19.5412 180.245 19.5158 176.001C19.4904 171.655 22.4892 169.571 26.1235 168.682Z" fill="#959DB0"/>
<path d="M47.5978 39.3742C42.4388 38.815 39.6178 36.3753 39.6686 31.5975C39.7195 26.3367 42.82 23.6174 47.9791 23.9478C52.7061 24.2528 55.1713 27.2771 54.968 32.0041C54.7647 36.8328 51.6641 38.9167 47.5978 39.3742Z" fill="#959DB0"/>
<path d="M33.9256 52.3859C33.1378 56.6046 30.7742 59.451 26.4284 59.2477C22.1589 59.0698 19.4396 56.2234 19.592 51.9284C19.7699 47.6589 22.5909 44.9396 26.9113 45.092C31.2063 45.2699 33.4428 48.1925 33.9256 52.3859Z" fill="#959DB0"/>
<path d="M11.5655 72.8199C11.1843 75.9967 9.48155 78.1823 6.27938 78.2332C2.59433 78.3094 0.408717 76.0475 0.637444 72.3625C0.840757 69.2111 3.00093 67.2543 6.25394 67.3813C9.50694 67.5592 11.1588 69.6686 11.5655 72.8199Z" fill="#959DB0"/>
<path d="M12.1227 114.143C11.8686 118.031 9.75919 120.293 5.69294 120.14C2.08414 120.013 0.0256214 117.853 0.000207274 114.244C-0.0252068 110.153 2.28748 107.967 6.35373 108.094C9.98794 108.196 11.8431 110.407 12.1227 114.143Z" fill="#959DB0"/>
<path d="M11.5638 155.542C11.0809 158.693 9.35279 160.854 6.1252 160.803C2.44016 160.752 0.279953 158.439 0.63575 154.78C0.940719 151.679 3.15172 149.697 6.40472 149.951C9.6069 150.205 11.2842 152.34 11.5638 155.542Z" fill="#959DB0"/>
</g>
</svg>
